<svg xmlns="http://www.w3.org/2000/svg" viewBox="0 0 667.9 506.2"><g id="b03a3b7e-d474-4f4b-9e46-1cebdb37c033" data-name="Layer 42"><path d="M600,282.9c-6.6-.6-13.1-2.5-19.4-4.4s-12.9-3.9-18.6-7.4a39.2,39.2,0,0,1-10.6-9.7c24.7.2,44.8-1.9,69.5-12.2,9.4-3.9,12.7-9.8,12.7-9.8-7.2,4.9-15,6.7-23.4,9.4a97.8,97.8,0,0,1-25.6,5.1,87.2,87.2,0,0,1-35.2-4.5c-19-6.5-40.9-9.9-60.1-4-2.2.7-4.5,1.4-6.8.9s-5.3-4.3-2.1-6.6a5.2,5.2,0,0,1,3.2-1.1c23.2-.6,46.6-11.6,61.3-29.7-17.2,10.7-33.9,17.9-57.8,19.1-9,.5-17.7,3.1-26.4.5l1.9-1.2,14.3-16.5c6.1-7,12.6-14.3,21.3-17.4s17.9-1.8,26.8.1,17.8,4.2,26.8,3.1,18.4-6.7,20.5-15.5c-4.8,7.4-14.5,10.3-23.3,9.9s-17.2-3.5-25.8-5.5-18.1-4-26-.3c-1.7-2.4-.1-5.6,1.5-8.1,3.3-5,6.8-10.3,11.7-13.9a53.3,53.3,0,0,1,22.8-9c-12.1.1-25.4.7-34.1,9.1-3.4,3.3-5.7,7.4-8.3,11.3-12.2,19.1-29.5,35.2-50.8,42.7a54.8,54.8,0,0,0-9.2,5.8,31.7,31.7,0,0,1-8.2,5.1l-2.4.8-1.2.4-1.1.3-4.8,1.2a31.2,31.2,0,0,1-5.2.8,41.3,41.3,0,0,1-5-.1l-4.4-.2h-4.1a83.3,83.3,0,0,0-14.4,2l-9.8,2.3-3.6.8,3.3-1.7a95.9,95.9,0,0,1,9.2-4.3,62.5,62.5,0,0,1,14.8-4.2,34.2,34.2,0,0,1,4.6-.4h4.3a10.1,10.1,0,0,1-2.3-1.2c-6.9-4.7-5.1-13.3-1.1-19.2,6.9-10.2,19.1-15.5,31.2-18.2,8.1-1.8,16.4-2.6,24.3-5.4s15.4-7.6,18.7-15.3c-9.7,6.5-20.4,13.2-32,12.7-8.2-.4-16.6-4.4-24.4-1.6a44.8,44.8,0,0,1,17.1-19.2,55.8,55.8,0,0,1,14-6,77,77,0,0,1,21.8-3c6.1,0,12.2.8,18.1,0s11.6-3.1,17.1-5.3,13.9-3.7,20.3-6.3c-16.3-3.8-29.8,9.8-53.7,3.9,19.3-8.3,36.5-20.8,51.3-35.8-10.5,4.3-16.2,11-26.2,16.6-8,4.5-16.5,6.2-24.5,10.7a38.2,38.2,0,0,1,10.4-28.1c-7.4,2.8-9.3,8.5-12.9,15.5-2.2,4.3-3.4,9.1-5.6,13.5s-10.2,7-14,10c-10.6,8.4-25.9,9.1-36,18.1-12.2,10.9-12.9,30.3-24.1,42.2-4,4.4-9.3,7.4-14.5,10.4s-11.9,6.2-17.6,9.6-16,2.4-20.7-3.7-5-13.6-2.9-20.5a31.8,31.8,0,0,1,4.2-8.7c5.3-7.7,13.4-13,22-17.2a44.1,44.1,0,0,0,14.8-12,48.7,48.7,0,0,1,27.7-17.6c7.3-1.7,15-1.6,22.4-2.8,11.9-1.9,24.1-8.3,28.3-19.5,0,0-9,10-26.5,13.1-8.4,1.4-17.1,1.3-25-1.7l11.7-8.9c7.5-5.8,15.3-11.8,20-20.1,3.7-6.8,5.3-14.7,10-20.9,2.3-2.9,4.2-7.1,7-9.5,6.2-5.1,10.4-9,19.3-13.2-15.6,3.4-21.7,7.6-31,18.4-4.5,5.2-6.4,17.2-10.8,22.5S419.9,112.2,416,117s-14.4,9.1-19.3,15c.1-7.4,0-14.8,1.8-21.9,3.9-15.4,8.4-23.9,20.4-29.2-11.1.1-17.7,5.2-23.3,16.8-4.2,8.9-3.1,20.3-6,29.8s-8.5,17.2-14.8,24.7c-8.2,9.7-19.5,16.1-30.5,22.2-6.2,3.4-13.2,7-20.1,5.3s-12.8-10.8-12-18.9,6.7-14.5,12.9-19.8c11.1-9.6,26.5-16.4,32.9-18.4s10.3-3.1,17.8-1.3c-2.7-2.7-6.7-3.7-10.5-3.5a38.5,38.5,0,0,0-11,2.7l-11.6,4a9.2,9.2,0,0,1-2.9.4c-1.3-.1-2.1,0-2.5-1.2s.3-2.8,1.4-3.7a40.2,40.2,0,0,1,4.6-2.4c9.2-4.4,18.6-9,25-16.8,4.8-5.9,7.5-13.2,11.7-19.4,5.8-8.6,15.5-16.7,25.3-19.9-4-1.2-14.5,1.9-27.5,13,1.2-5.5,11.1-11,12.7-14.1-5,2.2-10.2,4.5-14.2,8.2s-5.2,8.5-5.1,13.4a8.9,8.9,0,0,1-1.4,5.2c-3.2,5.2-8.1,9.4-13.1,13.2a105,105,0,0,1-11.7,7.3,4.6,4.6,0,0,1-6.7-4.3c1-21.3,6.2-22,9.9-26.7,1.2-1.5.9-2,1.3-3.5-3.8,6.2-13.4,8.5-14.7,20.5s-2.3,13.5-17.2,29.3c-4.1,4.4-8.3,8.6-12.3,13.1s-9.1,11.6-11.5,18.4c-2.3-.5-3.8-2.7-4.7-4.8a31.4,31.4,0,0,1,3.6-31.9c4-5.3,14.2-15.4,18.1-20.7,21.2-29.4,11-45.9,11-45.9,3.5,10.2-4.9,27-6.7,30-8.9,15.3-18.2,16-18.4,13.4-.6-6.2-3.1-14.1-2.4-20.5.9-8.5,8.8-16.9,8.8-16.9-9.4,4.9-14.4,16.8-11.5,27a14.6,14.6,0,0,1,1.2,5.4c-.2,2.4-2.4,5.1-5.2,3.2l-2.5-1.9c-8-6.3-17.4-23.7-10.1-37-4.4,3.2-5.3,11.3-4.7,17.5s2.6,11.2,5.5,16.8a28.9,28.9,0,0,1,3.3,16.6c-.3,6.4-3.9,12.2-6.4,18.1a55.4,55.4,0,0,0-4.6,23.7c.5,15.3,7.3,31.4,14.6,45,1.2.6,2.4,1.4,3.7,2.2a52.1,52.1,0,0,1,8.1,6.7,33.5,33.5,0,0,1,7,11l.4.8c.1.3.1.6.2.9s.3,1.2.5,1.8a13.6,13.6,0,0,1,.4,1.7c.1.6.3,1.2.4,1.8a53.5,53.5,0,0,1,1.2,7.5,53.6,53.6,0,0,1-.4,8.1,46.9,46.9,0,0,0,0,7.5,77.2,77.2,0,0,0,2.9,16c.7,2.8,1.5,5.5,2.2,8.2l.6,2,.7,1.8.6,1.8.8,1.8c2,4.6,5,8.7,7.9,12.9a53.2,53.2,0,0,1,6.9,13.1c.4,1.1.6,2.2.9,3.3a9.8,9.8,0,0,1,.5,1.6,8.8,8.8,0,0,0,.2,1.6l.6,3.1c0,1,.1,2,.2,3s.1,1.9.2,2.8v2.7a20.9,20.9,0,0,0-.1,2.5V321c0,.4-.1.8-.1,1.2s-.2,2.9-.3,4.2a11,11,0,0,0-.2,1.8l-.3,1.7c-.6,4.2-1,6.5-1,6.5s.1-2.3.1-6.6v-3.5c-.1-1.3-.1-2.7-.2-4.1V321c-.1-.4-.1-.8-.2-1.2a21.2,21.2,0,0,0-.2-2.4l-.3-2.6c-.1-.9-.3-1.7-.4-2.7s-.3-1.8-.5-2.8-.5-1.8-.8-2.8a8.3,8.3,0,0,0-.4-1.5,12.1,12.1,0,0,0-.5-1.4,14.5,14.5,0,0,0-1.1-2.9,49.6,49.6,0,0,0-7.1-11.6c-3-3.9-6.5-8.2-9.1-13.4l-.9-2-.8-2.1a18,18,0,0,0-.8-2.1l-.6-2-2.4-8.3a79,79,0,0,1-2.8-17.3,46.8,46.8,0,0,1,.4-8.4,13.6,13.6,0,0,0,.2-2l.3-1.8c.1-1.2.2-2.4.2-3.5a53.8,53.8,0,0,0-.7-6.9,11,11,0,0,1-.2-1.8c-.1-.5-.2-1.2-.3-1.6l-.3-1.6c-.1-.3-.1-.5-.2-.8l-.2-.7a30.6,30.6,0,0,0-5.4-10.3,46.9,46.9,0,0,0-6.9-7.1,73.3,73.3,0,0,0-6.1-4.7l-4.1-2.7-1.4-1-11-6.5c-5.8-3.5-11.9-6.4-17.8-9.6-3.9-2.1-5.8-6.2-9.8-9.6-8.7-7.3-8.9-20.6-15.9-29.7-3.7-4.9-8-9-5.7-14.4,3.5-8.3,13.8-10.2,22.2-13.3a57.6,57.6,0,0,0,27.9-22.7c-4.5,4.1-10.3,7.5-15.9,10.9a32.2,32.2,0,0,1-20.2,3.8c-7.4-1.1-12.5-7.5-16.6-13.9-6.1-9.6-8.3-15.9-5.2-24-3.8,2.3-5.3,10.5-3.3,16.4s5.2,12.2,8.2,18.9a14.6,14.6,0,0,1,.4,11.4c-3.1,7.7-11.2,7.8-18.1,7.4-16.6-1.2-33.4-1.1-49.6-3.9-11.1-1.9-23.6-4-32.7-9A69.5,69.5,0,0,0,143.7,113c8.1,1.1,16.5.7,24.4,2.7,28,6.9,37.3,14.9,44.8,33a29.5,29.5,0,0,1,1.9,8.7c.3,5.5,4.6,10.5,9.5,13.5s9.6,7.1,14.6,10.9a89.1,89.1,0,0,1,16.7,16.9c19,25.8,14.7,46.2,10.9,52.6,7.9,12.1,12.8,28,12.8,28-9.7-16.7-32-51.3-32-51.3-6.5-9.8-14.2-19.7-23.2-25.7-7.3-5-14.3-8.8-21.4-14.1a36.4,36.4,0,0,1-12.9-18.4c-2.6-8.3-2.6-18.2-9.3-23.7-3.9-3.2-9.2-4-14-5.7s-9.6-5.1-10.1-10.1c-.8,3.3,1.3,6.7,4,8.9s5.9,3.4,8.7,5.3c8.1,5.5,13.2,16.6,10.7,26.1a130.1,130.1,0,0,1-48.3-6.8c-10.3-3.5-19.5-6.9-27.6-14.1s-12.7-23.5-9.5-33.9a34.8,34.8,0,0,0-1.3,28.6c3.6,9.1,11,17,20.2,20.3-7.1,3-15.2,2-22.7.1s-14.6-5.6-22.4-5.6-14.4.1-19.5,5.9a61.1,61.1,0,0,1,47.1,8.2c-11,3.2-17.4,9-26,14.1-10.5,6.3-19,14.3-32.7,13.9,7.6,3.8,16.4-.2,24.1-3.7s14.3-8.1,21.8-12.1c16.5-8.9,26.6-7.9,26.9-7.9,5.5-.5,33.1.5,44,1.7s21.7,4.6,30.1,11.6c2.5,2.1,5,5.3,2.6,8.4a6.6,6.6,0,0,1-2.7,2c-16.1,5.7-34.9,9.7-47.6-2,1.5,6.3,7.7,10.7,14.1,12.1s13.1.1,19.5-1.4,12.9-3,19.4-2.6c15.2,1.1,30.6,15.4,30.7,30.6-18.6-3.1-37.2,6.3-54.6,13.6-7.3,3-15.6-.2-23.4-1.3-9.6-1.4-16.2-9.9-22.3-17.5s-14.2-15.8-23.9-15c2.1,1.4,11.4,4.7,15.6,12.3,1.2,2,2.7,4,3.4,6.3a36.4,36.4,0,0,0,7.7,12.4c2.3,2.3,3.3,3.2,5.7,5.4-5,4.2-12.8,2.3-18.1-1.5s-9.4-9.2-15.1-12.4c-11.1-6.3-23.9-1.4-35.3,4.3-9.4,4.7-15.6,4.2-23.7,3.1a36.6,36.6,0,0,0,32.1-.3c2.6-1.3,5.2-3.1,8.2-3.7s10.3,1.1,10.3,5c0,1.6-.4,4.5-1.4,5.8-2.6,3.7-6.3,5.7-9.6,8.3-5.2,4-8,9.3-6.3,15.6,2.6-8.8,11.2-14.8,20.1-16.7s18.2-.5,27.1,1.4,17.8,4.5,27,4.6c25.3.4,48.8-17,73.9-14.5,8.3.8,17.2,5.2,19.4,13.2-1.6,4.9,1.4,10.3,5.5,13.5s9.2,4.6,13.8,6.9a49.5,49.5,0,0,1,19.3,16.7,53.5,53.5,0,0,1,5.3,10,170.3,170.3,0,0,1,9.5,16.8,136.8,136.8,0,0,1,10,27.2,113,113,0,0,1,2.8,17.1,84.6,84.6,0,0,1-.7,18.7,58.4,58.4,0,0,1-2.2,9.4,56.6,56.6,0,0,1-3.6,8.7,63.1,63.1,0,0,1-10.3,14.2,61.9,61.9,0,0,1-12.4,9.9c-4.2,2.6-8.4,4.4-11.9,6.2a48.6,48.6,0,0,0-9.2,5.6,22.8,22.8,0,0,0-5.5,5.9,16.2,16.2,0,0,0-2.3,4.6c-.2.5-.3,1-.4,1.3a.6.6,0,0,1-.1.4,1.6,1.6,0,0,1,.1-.4,4.2,4.2,0,0,1,.2-1.4,16.2,16.2,0,0,1,1.7-5,23.5,23.5,0,0,1,5-6.8,47.1,47.1,0,0,1,9-6.8c3.5-2.2,7.4-4.3,11.1-7a62.6,62.6,0,0,0,10.9-9.9,57.4,57.4,0,0,0,13.9-29.8,99.8,99.8,0,0,0-1.1-33.8,164.6,164.6,0,0,0-7.7-27.1c-1.6-4-3-7.5-4.4-10.6,3.7,14.4,2.9,30.3,1.5,45.4-.9,9.4-2,19-5,28s-6.2,17.3-13.2,22.1S249.1,430,243,435.8a90.8,90.8,0,0,1-24.4,16.8c-4.9,2.4-10,4.3-15.1,6.2l-18.6,7.1c-8,3-16.2,6-24.7,6.6-11,.7-23.3-2.5-32.4,3.8-3.7,2.5-6.3,6.3-10,8.8s-9.5,3-12-.7c-2.8,2.5-1.3,6.1,2.3,7.6a8.1,8.1,0,0,0,5.1.4c4.4-.9,7.6-3.9,11.1-6.3s5.9-3.2,9.1-2.8,7.6,3.8,11.7,4.5c7,1.3,35.1-1.8,52.9,3.3a11.6,11.6,0,0,0,10.6-2.1,18.9,18.9,0,0,1,20.7-1.6c10.5,5.7,23.1,1.3,33.6-4s20.5-11.2,31.7-10.1c2.4.2,5.2,1.3,5.6,3.5l2.1-1.7a42.6,42.6,0,0,0,10.2-16.3c2.6-6.9,4.1-15,4.9-23.6.1-2.1.3-4.3.3-6.4s.1-4,0-6.1c-.2-4-.6-8.1-.7-12a55.6,55.6,0,0,1,.1-5.8,31.8,31.8,0,0,1,.7-5.5,40.9,40.9,0,0,1,2.8-9.5A46.6,46.6,0,0,1,328,378l1.5-1.6,1.1-1.2a4.9,4.9,0,0,0,1-.9l-.8,1.1a7.7,7.7,0,0,1-.9,1.3l-1.1,1.8a49.7,49.7,0,0,0-5.3,12.4,40.1,40.1,0,0,0-1.6,9,41.8,41.8,0,0,0-.2,5.1c.1,1.7.2,3.5.4,5.4.4,3.7,1,7.7,1.3,11.9.2,2.2.3,4.4.3,6.7s-.1,4.4-.3,6.7a77.8,77.8,0,0,1-6.1,25,41.4,41.4,0,0,1-13.1,16.7,28.3,28.3,0,0,1-6.9,3.8c-12.4,5.9-27.1,4.3-39.8,9.3-7.2,2.7-16.8,12.5-21.4,18.6,0,0,7.9-1.7,10.5-2.6s4.8-2.8,7.2-4.3c11.2-6.6,26-.5,38.4-4.3,3.7-1.1,7-3.1,10.5-4.5a88.1,88.1,0,0,1,12.4-3.6c6.9-1.6,14.7-2.6,21.2-5.6s12.6-5.7,19.3-5.4,13.8,5.1,14.3,11.9c.3,4.2-1.5,9.6,2.3,11.8a5.2,5.2,0,0,0,5-.2c3.9-2.4,4.7-6.9,7.5-10,4.3-5,11.8-4.1,18.3-4.7,24-2.5,36.1-2.5,59.7,10.8-4.5-8.8-8.5-18-19.2-22.1,6-5.2,14.7-6.2,22.5-5s15.3,4.4,22.9,6.7c24.9,7.5,65.6,8.6,76.4-6.8a81.9,81.9,0,0,1-45.5,2.2c-7.7-1.9-15.1-4.9-22.5-7.8l-14.4-5.8c-9.5-3.9-19-7.8-28.9-10.4a76.3,76.3,0,0,0-15-2.8c-6-.4-12,.1-17.9-.6l-4.1-.6-5.3-.2-10.4-1-5.5-.7-2.8-.4-2.8-.5-3-.5-2.9-.8a51,51,0,0,1-5.5-1.9c-1.7-.7-3.4-1.6-5-2.4s-3.1-1.8-4.5-2.9a52.7,52.7,0,0,1-7.5-6.2,45.3,45.3,0,0,1-5.5-6.5,51.9,51.9,0,0,1-5.9-10.6l-.6-1.7c-.2-.5-.3-1-.4-1.3a8.2,8.2,0,0,1-.4-1.1l.6,1,.7,1.1,1,1.6a56.3,56.3,0,0,0,7.3,9.1,62.7,62.7,0,0,0,5.9,5.3,61.1,61.1,0,0,0,7.5,5c1.4.9,2.8,1.5,4.3,2.3L381,434l4.9,1.6,2.6.6,2.6.5,2.8.4,2.8.4,2.2.4c-7.2-4.8-12.7-11.6-13.6-19.8-1.3-11.7-10.5-21.2-12.8-32.7-1.1-5.5-.7-11.1-.9-16.6-.4-10.6-3.6-21.8-8.1-31.5s-4.8-26.5-.3-36.7c2.3-5.3,3.7-9.5,5.4-14a58.6,58.6,0,0,0-9.1,16.1,61.8,61.8,0,0,0-2.7,10,85.5,85.5,0,0,0-1.2,9.7,162.3,162.3,0,0,0-.1,17c.3,4.9.5,8.9.7,11.6s.2,4.3.2,4.3l-1.1-4.1c-.8-2.7-1.8-6.5-2.8-11.4a93.9,93.9,0,0,1-2-17.5,63.4,63.4,0,0,1,.6-10.5,50.7,50.7,0,0,1,2.7-11.2,53.5,53.5,0,0,1,14.7-20.8c6.6-5.8,14.4-9.5,21.8-14a60.8,60.8,0,0,1,9.9-4.9c12.1-5.1,25.5-8.3,37.9-12.9,3.4-1.2,8.3-.2,10.7,2.6s6.9,3.9,10.2,5.9a15.4,15.4,0,0,0,11.5,1.9,138.6,138.6,0,0,1,42.6-3.4c12.6,1,25.8,4.1,35,12.8,3.6,3.5,6.6,7.7,10.6,10.8s8.8,4.5,13.6,5.8c8,2.3,16.2,2.9,24.4,4.2a37.6,37.6,0,0,0,20.9-2.7c8.9-3.7,14.5-11.7,14.5-11.7A48.8,48.8,0,0,1,600,282.9Z" transform="translate(-2 -2.9)" style="fill:#4b4645"/><path d="M79.7,71.7S91,74.8,97.1,80.3A49.4,49.4,0,0,1,109,96.9S81.8,93.6,79.7,71.7Z" transform="translate(-2 -2.9)" style="fill:#4b4645"/><path d="M72.6,316.2s-5.4-9.5-5.8-17a45.1,45.1,0,0,1,3.1-18.6S85.5,300.5,72.6,316.2Z" transform="translate(-2 -2.9)" style="fill:#4b4645"/><path d="M57.7,264s2.8-7,6.7-10.4a31.5,31.5,0,0,1,11.3-6.4S71.7,264.2,57.7,264Z" transform="translate(-2 -2.9)" style="fill:#4b4645"/><path d="M36.6,275.4s7.5-5.6,13.9-6.7a39,39,0,0,1,16.2.8S51.3,284.8,36.6,275.4Z" transform="translate(-2 -2.9)" style="fill:#4b4645"/><path d="M75.2,232.7s7.5-5.5,13.9-6.6a40.1,40.1,0,0,1,16.2.7S89.9,242.1,75.2,232.7Z" transform="translate(-2 -2.9)" style="fill:#4b4645"/><path d="M45.9,218.5s7.9,3.4,11.8,8a36.7,36.7,0,0,1,7,13.2S45.3,234.6,45.9,218.5Z" transform="translate(-2 -2.9)" style="fill:#4b4645"/><path d="M93.1,262.8s-5.4,9.5-5.8,17a45.1,45.1,0,0,0,3.1,18.6S105.9,278.5,93.1,262.8Z" transform="translate(-2 -2.9)" style="fill:#4b4645"/><path d="M50.6,253.9s-10.9-.3-17.7,2.9A45.5,45.5,0,0,0,18,268.3S42.9,272.6,50.6,253.9Z" transform="translate(-2 -2.9)" style="fill:#4b4645"/><path d="M49.1,245.4s-2.5-6.8-6.2-10.3a30.2,30.2,0,0,0-10.8-6.5S35.5,245.2,49.1,245.4Z" transform="translate(-2 -2.9)" style="fill:#4b4645"/><path d="M35.1,199.2s-5.8-4.4-10.7-5.3a29.6,29.6,0,0,0-12.7.3S23.5,206.4,35.1,199.2Z" transform="translate(-2 -2.9)" style="fill:#4b4645"/><path d="M49.2,206.3S42,207.5,38,210.5a31.2,31.2,0,0,0-8.4,9.5S46.6,219.6,49.2,206.3Z" transform="translate(-2 -2.9)" style="fill:#4b4645"/><path d="M55.6,193s-5.9-4.2-10.9-5a29.9,29.9,0,0,0-12.6.8S44.3,200.5,55.6,193Z" transform="translate(-2 -2.9)" style="fill:#4b4645"/><path d="M69.7,157.6s-3.4-6.5-7.5-9.4a30.4,30.4,0,0,0-11.6-5S56.2,159.2,69.7,157.6Z" transform="translate(-2 -2.9)" style="fill:#4b4645"/><path d="M91.3,143.9s-2.8-5.3-6.1-7.6a23.8,23.8,0,0,0-9.4-4.1S80.4,145.2,91.3,143.9Z" transform="translate(-2 -2.9)" style="fill:#4b4645"/><path d="M88.9,128.9s-3.5-6.4-7.5-9.4a31.9,31.9,0,0,0-11.7-4.9S75.4,130.6,88.9,128.9Z" transform="translate(-2 -2.9)" style="fill:#4b4645"/><path d="M88.8,117.4s1.5-7.1.3-12a30.7,30.7,0,0,0-5.8-11.3S77.4,110,88.8,117.4Z" transform="translate(-2 -2.9)" style="fill:#4b4645"/><path d="M133.4,293.1s-3.8-10.2-9.2-15.3a45.2,45.2,0,0,0-16.2-9.7S113.1,292.8,133.4,293.1Z" transform="translate(-2 -2.9)" style="fill:#4b4645"/><path d="M159.9,278.2s-6.5-5.1-12-6.2a34.7,34.7,0,0,0-14.2.3S146.8,286.1,159.9,278.2Z" transform="translate(-2 -2.9)" style="fill:#4b4645"/><path d="M246.2,132.7s-6.1,3.8-8.7,8a31,31,0,0,0-4.1,11.8S248.7,145.8,246.2,132.7Z" transform="translate(-2 -2.9)" style="fill:#4b4645"/><path d="M260.1,153.4s-7-1.9-11.8-.9a31.2,31.2,0,0,0-11.5,5S252.1,164.2,260.1,153.4Z" transform="translate(-2 -2.9)" style="fill:#4b4645"/><path d="M63.8,278.2s-8,1.6-12.5,5a34.1,34.1,0,0,0-9.1,11S61.2,293.3,63.8,278.2Z" transform="translate(-2 -2.9)" style="fill:#4b4645"/><path d="M183.1,239.4s-10.2,3.7-17.6,2.9a45.2,45.2,0,0,1-17.9-6.2S169.8,224.1,183.1,239.4Z" transform="translate(-2 -2.9)" style="fill:#4b4645"/><path d="M206.4,272.4s2.8-7,6.7-10.4a31.5,31.5,0,0,1,11.3-6.4S220.4,272.6,206.4,272.4Z" transform="translate(-2 -2.9)" style="fill:#4b4645"/><path d="M185.3,283.8s7.5-5.6,13.9-6.7a39,39,0,0,1,16.2.8S200,293.2,185.3,283.8Z" transform="translate(-2 -2.9)" style="fill:#4b4645"/><path d="M227.7,263.9s-5.4,9.5-5.8,17a45.1,45.1,0,0,0,3.1,18.6S240.5,279.6,227.7,263.9Z" transform="translate(-2 -2.9)" style="fill:#4b4645"/><path d="M199.3,262.3s-10.9-.3-17.7,2.9a45.5,45.5,0,0,0-14.9,11.5S191.6,281,199.3,262.3Z" transform="translate(-2 -2.9)" style="fill:#4b4645"/><path d="M228.1,189.4s-3.8-10.2-9.2-15.4a46.1,46.1,0,0,0-16.2-9.7S207.8,189.1,228.1,189.4Z" transform="translate(-2 -2.9)" style="fill:#4b4645"/><path d="M401.4,54.8s-3.8-10.2-9.2-15.4A44.9,44.9,0,0,0,376,29.8S381.1,54.5,401.4,54.8Z" transform="translate(-2 -2.9)" style="fill:#4b4645"/><path d="M212.5,286.6s-8,1.6-12.5,5.1a33.2,33.2,0,0,0-9.1,10.9S209.9,301.7,212.5,286.6Z" transform="translate(-2 -2.9)" style="fill:#4b4645"/><path d="M324.7,146s-.1,8.2,2.3,13.3a35,35,0,0,0,8.8,11.1S338.8,151.6,324.7,146Z" transform="translate(-2 -2.9)" style="fill:#4b4645"/><path d="M460.7,282.2s-3.7-10.2-9.2-15.3a45.2,45.2,0,0,0-16.2-9.7S440.4,281.9,460.7,282.2Z" transform="translate(-2 -2.9)" style="fill:#4b4645"/><path d="M486,272.4s-6.5-5-12-6.2a34.7,34.7,0,0,0-14.2.3S472.9,280.3,486,272.4Z" transform="translate(-2 -2.9)" style="fill:#4b4645"/><path d="M619.1,210.4s2.7-7,6.6-10.5a30.3,30.3,0,0,1,11.3-6.3S633,210.5,619.1,210.4Z" transform="translate(-2 -2.9)" style="fill:#4b4645"/><path d="M504.4,287.1s7.6-5.6,13.9-6.7a39,39,0,0,1,16.2.8S519.1,296.5,504.4,287.1Z" transform="translate(-2 -2.9)" style="fill:#4b4645"/><path d="M639.8,242.8s7.6-5.5,14-6.7a39,39,0,0,1,16.2.8S654.5,252.2,639.8,242.8Z" transform="translate(-2 -2.9)" style="fill:#4b4645"/><path d="M634.4,273.2s7.5-5.6,13.9-6.7a39,39,0,0,1,16.2.8S649,282.6,634.4,273.2Z" transform="translate(-2 -2.9)" style="fill:#4b4645"/><path d="M561.5,284.8s-5.4,9.5-5.8,16.9a44.6,44.6,0,0,0,3.1,18.6S574.4,300.5,561.5,284.8Z" transform="translate(-2 -2.9)" style="fill:#4b4645"/><path d="M618.6,179s-10.9-.2-17.7,2.9a46.6,46.6,0,0,0-15,11.5S610.8,197.8,618.6,179Z" transform="translate(-2 -2.9)" style="fill:#4b4645"/><path d="M615.7,203s-8.1,1.5-12.6,5a34.8,34.8,0,0,0-9.1,10.9S613.1,218,615.7,203Z" transform="translate(-2 -2.9)" style="fill:#4b4645"/><path d="M60.7,207.3s10.8-1.4,17.9,1a44.9,44.9,0,0,1,16.1,9.8S70.4,225.1,60.7,207.3Z" transform="translate(-2 -2.9)" style="fill:#4b4645"/><path d="M612.6,174s-5.4-9.5-5.8-17a45.1,45.1,0,0,1,3.1-18.6S625.5,158.3,612.6,174Z" transform="translate(-2 -2.9)" style="fill:#4b4645"/><path d="M600.2,119.7s-2.3-7.1-1.6-12.3a32.6,32.6,0,0,1,4.7-12.1S611.1,110.9,600.2,119.7Z" transform="translate(-2 -2.9)" style="fill:#4b4645"/><path d="M592,182.4s-2.3-7.1-1.6-12.2a32.6,32.6,0,0,1,4.7-12.2S602.9,173.6,592,182.4Z" transform="translate(-2 -2.9)" style="fill:#4b4645"/><path d="M571.5,132.4s7.6-5.6,13.9-6.7a39,39,0,0,1,16.2.8S586.2,141.8,571.5,132.4Z" transform="translate(-2 -2.9)" style="fill:#4b4645"/><path d="M510.4,71s7.6-5.5,13.9-6.6a39,39,0,0,1,16.2.8S525.1,80.5,510.4,71Z" transform="translate(-2 -2.9)" style="fill:#4b4645"/><path d="M569.3,86.1s8,3.4,11.8,7.9a36.7,36.7,0,0,1,7,13.3S568.7,102.2,569.3,86.1Z" transform="translate(-2 -2.9)" style="fill:#4b4645"/><path d="M628.4,153.4s-5.3,9.5-5.8,17a47.1,47.1,0,0,0,3.1,18.6S641.3,169.1,628.4,153.4Z" transform="translate(-2 -2.9)" style="fill:#4b4645"/><path d="M585.6,110.9s-10.9-.2-17.7,2.9a46.6,46.6,0,0,0-15,11.5S577.8,129.7,585.6,110.9Z" transform="translate(-2 -2.9)" style="fill:#4b4645"/><path d="M566.9,112.4s-2.5-6.9-6.1-10.3a31,31,0,0,0-10.9-6.5S553.3,112.2,566.9,112.4Z" transform="translate(-2 -2.9)" style="fill:#4b4645"/><path d="M573.5,66.2s-7.2,1.2-11.3,4.2a30.1,30.1,0,0,0-8.3,9.5S570.8,79.5,573.5,66.2Z" transform="translate(-2 -2.9)" style="fill:#4b4645"/><path d="M594.3,138.9s-8,1.6-12.5,5a34.3,34.3,0,0,0-9.1,10.9S591.7,153.9,594.3,138.9Z" transform="translate(-2 -2.9)" style="fill:#4b4645"/><path d="M466.7,67.2s10.8-1.5,17.9.9a46.6,46.6,0,0,1,16.1,9.8S476.4,84.9,466.7,67.2Z" transform="translate(-2 -2.9)" style="fill:#4b4645"/><path d="M127.5,179.3s4.7,4.4,6.3,8.5a26.8,26.8,0,0,1,1.7,11S123.1,190.5,127.5,179.3Z" transform="translate(-2 -2.9)" style="fill:#4b4645"/><path d="M152.5,182.3s-2.1,6.1-5.2,9.2a26.6,26.6,0,0,1-9.4,5.9S140.6,182.8,152.5,182.3Z" transform="translate(-2 -2.9)" style="fill:#4b4645"/><path d="M166.2,194.9s-4.3,4.7-8.4,6.3a26.8,26.8,0,0,1-11,1.7S155.1,190.5,166.2,194.9Z" transform="translate(-2 -2.9)" style="fill:#4b4645"/><path d="M192,209.6s-4.3,4.7-8.4,6.3a26.8,26.8,0,0,1-11,1.7S180.9,205.2,192,209.6Z" transform="translate(-2 -2.9)" style="fill:#4b4645"/><path d="M152.1,215.9s-3.9,5.1-7.9,7.1a26.6,26.6,0,0,1-10.8,2.5S140.6,212.5,152.1,215.9Z" transform="translate(-2 -2.9)" style="fill:#4b4645"/><path d="M141.4,209.8s-4.9,1.9-8.4,1.6a21.5,21.5,0,0,1-8.6-2.9S134.9,202.6,141.4,209.8Z" transform="translate(-2 -2.9)" style="fill:#4b4645"/><path d="M167.2,215.4s-2.1,6.1-5.2,9.2a26.6,26.6,0,0,1-9.4,5.9S155.3,215.8,167.2,215.4Z" transform="translate(-2 -2.9)" style="fill:#4b4645"/><path d="M145.9,237.7s-6.1,1.9-10.5,1.1a26.1,26.1,0,0,1-10.3-4.1S138.6,228.3,145.9,237.7Z" transform="translate(-2 -2.9)" style="fill:#4b4645"/><path d="M368.3,153.5s-7.9,2.8-13.6,2.2A36.3,36.3,0,0,1,341,151S358.1,141.7,368.3,153.5Z" transform="translate(-2 -2.9)" style="fill:#4b4645"/><path d="M370.3,181.9s-3.9,5.1-7.9,7a25.8,25.8,0,0,1-10.8,2.6S358.9,178.5,370.3,181.9Z" transform="translate(-2 -2.9)" style="fill:#4b4645"/><path d="M397.2,172.2s-4.9,1.9-8.5,1.5a21.2,21.2,0,0,1-8.6-2.8S390.7,165,397.2,172.2Z" transform="translate(-2 -2.9)" style="fill:#4b4645"/><path d="M387.4,193.5s-2,6.1-5.2,9.2a26.6,26.6,0,0,1-9.4,5.9S375.5,193.9,387.4,193.5Z" transform="translate(-2 -2.9)" style="fill:#4b4645"/><path d="M365.1,198.5s-6.2,1.8-10.6,1.1a27.1,27.1,0,0,1-10.3-4.2S357.7,189.1,365.1,198.5Z" transform="translate(-2 -2.9)" style="fill:#4b4645"/><path d="M111.5,198.4s6.2,7,7.9,13.3a37.9,37.9,0,0,1,.8,16.2S103.5,213.9,111.5,198.4Z" transform="translate(-2 -2.9)" style="fill:#4b4645"/><path d="M95,114.8s-.2-4.8,1.1-7.9a19.8,19.8,0,0,1,5-6.7S103.2,111.2,95,114.8Z" transform="translate(-2 -2.9)" style="fill:#4b4645"/><path d="M95,128.6s3.9-5.6,8-7.8a28.8,28.8,0,0,1,11.3-3.4S107.3,131.6,95,128.6Z" transform="translate(-2 -2.9)" style="fill:#4b4645"/><path d="M100.1,137.4s8.4-3.5,14.6-3.1a38.9,38.9,0,0,1,15.1,4.5S111.7,149.6,100.1,137.4Z" transform="translate(-2 -2.9)" style="fill:#4b4645"/><path d="M136.4,152.9s7.2-5.6,13.3-6.9a38,38,0,0,1,15.7.3S150.9,161.6,136.4,152.9Z" transform="translate(-2 -2.9)" style="fill:#4b4645"/><path d="M173.3,98.2s9-1.1,14.9.9a37.6,37.6,0,0,1,13.3,8.3S181.3,113.1,173.3,98.2Z" transform="translate(-2 -2.9)" style="fill:#4b4645"/><path d="M157.6,159.3s5-2.1,8.7-1.9a24,24,0,0,1,9.1,2.7S164.5,166.7,157.6,159.3Z" transform="translate(-2 -2.9)" style="fill:#4b4645"/><path d="M175.3,85.8s8.4-3.4,14.6-3a38,38,0,0,1,15,4.5S186.9,98.1,175.3,85.8Z" transform="translate(-2 -2.9)" style="fill:#4b4645"/><path d="M175.3,58.9s8.9,1.6,13.9,5.2A40.3,40.3,0,0,1,199.6,76S178.5,75.5,175.3,58.9Z" transform="translate(-2 -2.9)" style="fill:#4b4645"/><path d="M181,42.3s7.8,1.4,12.2,4.6a33.6,33.6,0,0,1,9.1,10.4S183.9,56.8,181,42.3Z" transform="translate(-2 -2.9)" style="fill:#4b4645"/><path d="M322.2,84.9a15.5,15.5,0,0,1,5.7,2,15.1,15.1,0,0,1,4.3,4.6S323.7,91.6,322.2,84.9Z" transform="translate(-2 -2.9)" style="fill:#4b4645"/><path d="M327.4,67.5s4.5,3.8,6,7.5a24.1,24.1,0,0,1,1.9,10S323.8,77.8,327.4,67.5Z" transform="translate(-2 -2.9)" style="fill:#4b4645"/><path d="M336,57s3.9,3.4,5.3,6.6a20.8,20.8,0,0,1,1.6,8.7S332.9,66,336,57Z" transform="translate(-2 -2.9)" style="fill:#4b4645"/><path d="M48,160.1s-6.6-1.7-10.2-4.8a28.9,28.9,0,0,1-7-9.5S46.6,147.5,48,160.1Z" transform="translate(-2 -2.9)" style="fill:#4b4645"/><path d="M42.2,181.7s2.7-6.3,6.3-9.2a28.3,28.3,0,0,1,10.6-5.4S54.8,182.3,42.2,181.7Z" transform="translate(-2 -2.9)" style="fill:#4b4645"/><path d="M62.4,175.2s3.6-4.1,7-5.5a24.2,24.2,0,0,1,9.2-1.5S71.8,178.7,62.4,175.2Z" transform="translate(-2 -2.9)" style="fill:#4b4645"/><path d="M156.5,129.4s-.2-4.8,1.2-7.9a20.3,20.3,0,0,1,4.9-6.7S164.8,125.8,156.5,129.4Z" transform="translate(-2 -2.9)" style="fill:#4b4645"/><path d="M159.5,132s4.2-2.4,7.5-2.6a21.4,21.4,0,0,1,8.3,1.4S166.5,137.7,159.5,132Z" transform="translate(-2 -2.9)" style="fill:#4b4645"/><path d="M180.9,140.2s1.3-4.6,3.6-7.1a20.2,20.2,0,0,1,6.9-4.7S189.8,139.5,180.9,140.2Z" transform="translate(-2 -2.9)" style="fill:#4b4645"/><path d="M189.8,151.6s.9-4.7,3-7.3a19.8,19.8,0,0,1,6.4-5.4S198.7,150.1,189.8,151.6Z" transform="translate(-2 -2.9)" style="fill:#4b4645"/><path d="M189.8,157.6s4.2-2.4,7.5-2.6a21.4,21.4,0,0,1,8.3,1.4S196.8,163.3,189.8,157.6Z" transform="translate(-2 -2.9)" style="fill:#4b4645"/><path d="M140.5,125.6s4.8.3,7.7,1.9a20.2,20.2,0,0,1,6.1,5.7S143.2,134.1,140.5,125.6Z" transform="translate(-2 -2.9)" style="fill:#4b4645"/><path d="M2,236.5s10.8-1.5,17.9.9A46.6,46.6,0,0,1,36,247.2S11.8,254.3,2,236.5Z" transform="translate(-2 -2.9)" style="fill:#4b4645"/><path d="M13.4,180.9s7.2-8.2,14.1-11.1A45.7,45.7,0,0,1,46,166.5S32.5,187.8,13.4,180.9Z" transform="translate(-2 -2.9)" style="fill:#4b4645"/><path d="M226,19.1s-10.2,7.7-14.1,15.6a53.4,53.4,0,0,0-5.3,21.4S232.6,42,226,19.1Z" transform="translate(-2 -2.9)" style="fill:#4b4645"/><path d="M237.9,45s-10.3,1.1-16.4,5a44.5,44.5,0,0,0-12.7,12.8S233,63.8,237.9,45Z" transform="translate(-2 -2.9)" style="fill:#4b4645"/><path d="M232.7,64.7s-7.4,2.7-11.2,6.6a34,34,0,0,0-7.1,11.8S232.5,79.5,232.7,64.7Z" transform="translate(-2 -2.9)" style="fill:#4b4645"/><path d="M244.8,67.4s-5,6.2-6.1,11.5a32.1,32.1,0,0,0,0,13.8S252.2,80.2,244.8,67.4Z" transform="translate(-2 -2.9)" style="fill:#4b4645"/><path d="M265.7,58s-5,6.2-6.2,11.5a33.4,33.4,0,0,0,0,13.7S273.1,70.8,265.7,58Z" transform="translate(-2 -2.9)" style="fill:#4b4645"/><path d="M294.5,48.8s-6.4.6-10.1,2.9a26.8,26.8,0,0,0-7.9,7.8S291.3,60.2,294.5,48.8Z" transform="translate(-2 -2.9)" style="fill:#4b4645"/><path d="M284.6,62.5s-4.2,2.6-5.9,5.5a19.8,19.8,0,0,0-2.7,8S286.4,71.4,284.6,62.5Z" transform="translate(-2 -2.9)" style="fill:#4b4645"/><path d="M237.6,28.1s1.2,9.5,4.8,15a40.8,40.8,0,0,0,11.9,11.5S254.8,32.4,237.6,28.1Z" transform="translate(-2 -2.9)" style="fill:#4b4645"/><path d="M269.6,20.7s-8-5.2-14.5-6a40,40,0,0,0-16.5,1.6S255.2,31.1,269.6,20.7Z" transform="translate(-2 -2.9)" style="fill:#4b4645"/><path d="M296.7,12.4s6.3,4.9,11.6,5.9a33.7,33.7,0,0,0,13.8-.4S309.3,4.7,296.7,12.4Z" transform="translate(-2 -2.9)" style="fill:#4b4645"/><path d="M156.5,105.6s-.8-6.3-3.3-9.9a26.2,26.2,0,0,0-7.9-7.6S145,102.8,156.5,105.6Z" transform="translate(-2 -2.9)" style="fill:#4b4645"/><path d="M140.5,103.6s-1.1-7.9-4.1-12.4a32.9,32.9,0,0,0-10-9.4S126.1,100.2,140.5,103.6Z" transform="translate(-2 -2.9)" style="fill:#4b4645"/><path d="M120.6,106.7s-4.3,4.7-8.3,6.2a26.2,26.2,0,0,1-10.9,1.7S109.6,102.4,120.6,106.7Z" transform="translate(-2 -2.9)" style="fill:#4b4645"/><path d="M135.2,115s-4.3,6.7-9,9.6a32.8,32.8,0,0,1-13,4.3S120.7,112.1,135.2,115Z" transform="translate(-2 -2.9)" style="fill:#4b4645"/><path d="M130.8,62.5s3.9-5.6,8-7.9a27.6,27.6,0,0,1,11.3-3.3S143.2,65.5,130.8,62.5Z" transform="translate(-2 -2.9)" style="fill:#4b4645"/><path d="M135.3,75.7s8.4-3.5,14.6-3A38.9,38.9,0,0,1,165,77.2S146.9,88,135.3,75.7Z" transform="translate(-2 -2.9)" style="fill:#4b4645"/><path d="M172.6,51.2s-4.3,6.7-8.9,9.6a33.1,33.1,0,0,1-13.1,4.3S158.1,48.3,172.6,51.2Z" transform="translate(-2 -2.9)" style="fill:#4b4645"/><path d="M116.7,98.9s2.7-7.5,2.1-12.9a35.1,35.1,0,0,0-4.5-13S105.5,89.2,116.7,98.9Z" transform="translate(-2 -2.9)" style="fill:#4b4645"/><path d="M326.8,2.9s11.4,3.2,17.4,8.6a49.4,49.4,0,0,1,11.9,16.6S329,24.8,326.8,2.9Z" transform="translate(-2 -2.9)" style="fill:#4b4645"/><path d="M336,52.3s-.2-4.8,1.1-7.9a21.4,21.4,0,0,1,5-6.7S344.3,48.7,336,52.3Z" transform="translate(-2 -2.9)" style="fill:#4b4645"/><path d="M414.4,40s9-1.1,14.9.9a38.7,38.7,0,0,1,13.4,8.3S422.5,54.9,414.4,40Z" transform="translate(-2 -2.9)" style="fill:#4b4645"/><path d="M407.8,38.2s-.8-6.2-3.2-9.9a26,26,0,0,0-8-7.5S396.4,35.5,407.8,38.2Z" transform="translate(-2 -2.9)" style="fill:#4b4645"/><path d="M383,61.2s-1.1-7.9-4.1-12.4a32.9,32.9,0,0,0-10-9.4S368.6,57.8,383,61.2Z" transform="translate(-2 -2.9)" style="fill:#4b4645"/><path d="M404,66.6a17.9,17.9,0,0,1,6,2.1,15.8,15.8,0,0,1,4.6,4.9S405.6,73.6,404,66.6Z" transform="translate(-2 -2.9)" style="fill:#4b4645"/><path d="M400.6,111s3.1-4.4,6.3-6.2a23.1,23.1,0,0,1,9-2.6S410.4,113.4,400.6,111Z" transform="translate(-2 -2.9)" style="fill:#4b4645"/><path d="M413.6,51a17.1,17.1,0,0,1-4.1,4.4,16.4,16.4,0,0,1-6,2S406.9,49.7,413.6,51Z" transform="translate(-2 -2.9)" style="fill:#4b4645"/><path d="M370.7,33.7s2.7-7.4,2.1-12.9a33.4,33.4,0,0,0-4.6-12.9S359.5,24.1,370.7,33.7Z" transform="translate(-2 -2.9)" style="fill:#4b4645"/><path d="M247.6,103.4s7,1.3,11.6.1A29.6,29.6,0,0,0,270,97.7S254.6,92.3,247.6,103.4Z" transform="translate(-2 -2.9)" style="fill:#4b4645"/><path d="M259.9,92.2s5,1,8.3.1a22.4,22.4,0,0,0,7.7-4.1S264.9,84.3,259.9,92.2Z" transform="translate(-2 -2.9)" style="fill:#4b4645"/><path d="M364.7,67.4s-5,6.2-6.2,11.5a34,34,0,0,0,0,13.8S372.1,80.2,364.7,67.4Z" transform="translate(-2 -2.9)" style="fill:#4b4645"/><path d="M366,107.1s5.6,4.3,10.4,5.2a29.6,29.6,0,0,0,12.3-.3S377.2,100.2,366,107.1Z" transform="translate(-2 -2.9)" style="fill:#4b4645"/><path d="M341.7,97.9s4.9-3.1,6.9-6.5a23.5,23.5,0,0,0,3.2-9.4S339.6,87.4,341.7,97.9Z" transform="translate(-2 -2.9)" style="fill:#4b4645"/><path d="M354.6,127.5s4.1,3.1,7.6,3.8a22,22,0,0,0,9-.3S362.8,122.4,354.6,127.5Z" transform="translate(-2 -2.9)" style="fill:#4b4645"/><path d="M338.3,135.5s5.6,4.3,10.4,5.2a29.6,29.6,0,0,0,12.3-.3S349.5,128.6,338.3,135.5Z" transform="translate(-2 -2.9)" style="fill:#4b4645"/><path d="M313.2,101.8s5.1-.8,8-2.8a22.6,22.6,0,0,0,6-6.6S315.2,92.5,313.2,101.8Z" transform="translate(-2 -2.9)" style="fill:#4b4645"/><path d="M302.4,116.7s7-1.1,11-3.9a29.2,29.2,0,0,0,8.2-9.1S305.2,103.8,302.4,116.7Z" transform="translate(-2 -2.9)" style="fill:#4b4645"/><path d="M377.3,99.9s6.9-1.6,10.6-4.8a29.8,29.8,0,0,0,7.4-9.7S379,86.9,377.3,99.9Z" transform="translate(-2 -2.9)" style="fill:#4b4645"/><path d="M385.4,80.3s4.9.9,8.3,0a20.6,20.6,0,0,0,7.7-4.1S390.4,72.3,385.4,80.3Z" transform="translate(-2 -2.9)" style="fill:#4b4645"/><path d="M377.3,122a18.6,18.6,0,0,0,4,4.2,15.6,15.6,0,0,0,5.8,1.8S383.7,120.6,377.3,122Z" transform="translate(-2 -2.9)" style="fill:#4b4645"/><path d="M519.5,114.6s5.6,4.3,10.4,5.2a29.2,29.2,0,0,0,12.2-.3S530.7,107.7,519.5,114.6Z" transform="translate(-2 -2.9)" style="fill:#4b4645"/><path d="M519,104.6s4.5-5.4,5.7-10.1a28.9,28.9,0,0,0,.2-12.3S512.6,93.1,519,104.6Z" transform="translate(-2 -2.9)" style="fill:#4b4645"/><path d="M509.3,123.6s4.1,3.2,7.6,3.8a20.5,20.5,0,0,0,8.9-.2S517.5,118.6,509.3,123.6Z" transform="translate(-2 -2.9)" style="fill:#4b4645"/><path d="M498.3,129.9a23.2,23.2,0,0,0,6.8,3.4,18.8,18.8,0,0,0,7.9-.3S505.6,125.4,498.3,129.9Z" transform="translate(-2 -2.9)" style="fill:#4b4645"/><path d="M530.8,109.8a16.7,16.7,0,0,0,5.7,1,14.3,14.3,0,0,0,5.8-1.9S535.2,104.9,530.8,109.8Z" transform="translate(-2 -2.9)" style="fill:#4b4645"/><path d="M491.4,204.7s-1,6.8.5,11.3a27.5,27.5,0,0,0,6,10.2S502.6,211,491.4,204.7Z" transform="translate(-2 -2.9)" style="fill:#4b4645"/><path d="M498.1,196.9s4.3,5.3,8.6,7.3a29.8,29.8,0,0,0,11.5,2.5S510.2,193,498.1,196.9Z" transform="translate(-2 -2.9)" style="fill:#4b4645"/><path d="M519.5,201.3s.5,4.5,2.2,7.1a17.4,17.4,0,0,0,5.5,5.5S527.6,203.5,519.5,201.3Z" transform="translate(-2 -2.9)" style="fill:#4b4645"/><path d="M538.7,196.6s-3,3.7-3.7,6.9a19.6,19.6,0,0,0,0,8.3S543.1,204.3,538.7,196.6Z" transform="translate(-2 -2.9)" style="fill:#4b4645"/><path d="M483.2,113.3a13.2,13.2,0,0,0,.3,12S488.1,118.1,483.2,113.3Z" transform="translate(-2 -2.9)" style="fill:#4b4645"/><path d="M494.4,104.3s-2.2,5-2.1,8.8a22.7,22.7,0,0,0,2.5,9.2S501.6,111.5,494.4,104.3Z" transform="translate(-2 -2.9)" style="fill:#4b4645"/><path d="M500.8,97.7s.5,5.1,2.3,8.1a22.6,22.6,0,0,0,6.2,6.5S510,100.4,500.8,97.7Z" transform="translate(-2 -2.9)" style="fill:#4b4645"/><path d="M508.1,92.5a17.8,17.8,0,0,0,1.8,6.1,15.8,15.8,0,0,0,4.7,4.8S515.1,94.4,508.1,92.5Z" transform="translate(-2 -2.9)" style="fill:#4b4645"/><path d="M532.8,166.8s-7.9.5-12.7,3.2a32.3,32.3,0,0,0-10.1,9.2S528.3,180.9,532.8,166.8Z" transform="translate(-2 -2.9)" style="fill:#4b4645"/><path d="M538.5,165.4s-4.3,5.3-5.3,9.9a28.4,28.4,0,0,0,0,11.8S544.8,176.4,538.5,165.4Z" transform="translate(-2 -2.9)" style="fill:#4b4645"/><path d="M551.1,166.1s-4,5-5,9.3a26.5,26.5,0,0,0,0,11S557,176.4,551.1,166.1Z" transform="translate(-2 -2.9)" style="fill:#4b4645"/><path d="M562.6,173.3s-3,3.7-3.8,6.9a21.7,21.7,0,0,0,0,8.3S567,181,562.6,173.3Z" transform="translate(-2 -2.9)" style="fill:#4b4645"/><path d="M420.5,123.8a17.6,17.6,0,0,0-3,5.6,16,16,0,0,0,0,6.7S424.1,130,420.5,123.8Z" transform="translate(-2 -2.9)" style="fill:#4b4645"/><path d="M438.3,113.2s-4,4.9-4.9,9.2a26.5,26.5,0,0,0,0,11S444.3,123.4,438.3,113.2Z" transform="translate(-2 -2.9)" style="fill:#4b4645"/><path d="M436.5,78.9s-4.6-1.6-7.9-1.2a21.3,21.3,0,0,0-7.9,2.8S430.6,85.8,436.5,78.9Z" transform="translate(-2 -2.9)" style="fill:#4b4645"/><path d="M424,69.6a15.6,15.6,0,0,0-4.7,3.4,14.4,14.4,0,0,0-2.7,5.5S424.4,76.2,424,69.6Z" transform="translate(-2 -2.9)" style="fill:#4b4645"/><path d="M418.8,83a17,17,0,0,0,4.4,3.8,15.2,15.2,0,0,0,5.9,1.4S425.1,81.1,418.8,83Z" transform="translate(-2 -2.9)" style="fill:#4b4645"/><path d="M419.9,90.8s-4.9-.5-8.1.7a22,22,0,0,0-7.2,4.8S415.8,99.1,419.9,90.8Z" transform="translate(-2 -2.9)" style="fill:#4b4645"/><path d="M448,109.3s-3,3.7-3.7,7a19.7,19.7,0,0,0,0,8.3S452.4,117,448,109.3Z" transform="translate(-2 -2.9)" style="fill:#4b4645"/><path d="M554.6,197.5s-3.7,2.1-5.3,4.5a18.4,18.4,0,0,0-2.7,6.8S555.8,205.3,554.6,197.5Z" transform="translate(-2 -2.9)" style="fill:#4b4645"/><path d="M517.5,233.6s6.3,4.9,11.7,5.9a33.3,33.3,0,0,0,13.7-.4S530.1,225.9,517.5,233.6Z" transform="translate(-2 -2.9)" style="fill:#4b4645"/><path d="M535.4,227.1s6.9,1.4,11.6.1a30.8,30.8,0,0,0,10.8-5.8S542.3,216,535.4,227.1Z" transform="translate(-2 -2.9)" style="fill:#4b4645"/><path d="M545.6,211.6s4.4,2.4,7.9,2.6a20.7,20.7,0,0,0,8.6-1.6S552.8,205.5,545.6,211.6Z" transform="translate(-2 -2.9)" style="fill:#4b4645"/><path d="M572.7,286s.3,7.9,2.9,12.7a33.6,33.6,0,0,0,9,10.4S586.7,290.8,572.7,286Z" transform="translate(-2 -2.9)" style="fill:#4b4645"/><path d="M614.6,219s-5,6.1-6.2,11.5a33.4,33.4,0,0,0,0,13.7S622,231.8,614.6,219Z" transform="translate(-2 -2.9)" style="fill:#4b4645"/><path d="M629.1,220.3s-3.9,4.9-4.9,9.1a25.9,25.9,0,0,0,0,10.9S635,230.5,629.1,220.3Z" transform="translate(-2 -2.9)" style="fill:#4b4645"/><path d="M566,196.8s6.3,4.8,11.7,5.8a33.3,33.3,0,0,0,13.7-.4S578.6,189,566,196.8Z" transform="translate(-2 -2.9)" style="fill:#4b4645"/><path d="M554.8,233.3s6.9,1.3,11.6,0a28.6,28.6,0,0,0,10.8-5.7S561.8,222.2,554.8,233.3Z" transform="translate(-2 -2.9)" style="fill:#4b4645"/><path d="M567.5,249.8s9.1-2.3,13.9-6.5a38.7,38.7,0,0,0,9.6-13S569.5,232.6,567.5,249.8Z" transform="translate(-2 -2.9)" style="fill:#4b4645"/><path d="M567.5,223.3s6.9,1.3,11.6.1a29.6,29.6,0,0,0,10.8-5.8S574.5,212.2,567.5,223.3Z" transform="translate(-2 -2.9)" style="fill:#4b4645"/><path d="M589.2,249.9s4.7-1.9,7.1-4.5a22.3,22.3,0,0,0,4.3-7.6S589.1,240.5,589.2,249.9Z" transform="translate(-2 -2.9)" style="fill:#4b4645"/><path d="M580.6,274.8s4.7-1.8,7-4.4a22.3,22.3,0,0,0,4.3-7.6S580.5,265.4,580.6,274.8Z" transform="translate(-2 -2.9)" style="fill:#4b4645"/><path d="M615.4,258.4s-7,3.7-10.2,8.2a32.5,32.5,0,0,0-5.3,12.6S617.2,273,615.4,258.4Z" transform="translate(-2 -2.9)" style="fill:#4b4645"/><path d="M625.8,252.2s-4.9,6.1-6.1,11.5a33.4,33.4,0,0,0,0,13.7S633.2,264.9,625.8,252.2Z" transform="translate(-2 -2.9)" style="fill:#4b4645"/><path d="M594.9,291.6s3.3,7.1,7.6,10.6a33.5,33.5,0,0,0,12.3,6S609.6,290.6,594.9,291.6Z" transform="translate(-2 -2.9)" style="fill:#4b4645"/><path d="M614.8,289.9s2.8,6.5,6.5,9.6a29.7,29.7,0,0,0,10.9,5.7S627.9,289.4,614.8,289.9Z" transform="translate(-2 -2.9)" style="fill:#4b4645"/><path d="M486.1,259.6s.3,7.9,2.9,12.7a33.6,33.6,0,0,0,9,10.4S500,264.4,486.1,259.6Z" transform="translate(-2 -2.9)" style="fill:#4b4645"/><path d="M501.5,256.8s3.3,7.2,7.5,10.6a33.5,33.5,0,0,0,12.4,6S516.2,255.8,501.5,256.8Z" transform="translate(-2 -2.9)" style="fill:#4b4645"/><path d="M530.2,269.8s2.8,6.4,6.5,9.6a30.4,30.4,0,0,0,10.9,5.6S543.3,269.2,530.2,269.8Z" transform="translate(-2 -2.9)" style="fill:#4b4645"/><path d="M649.5,253.4s1.8,4.2,4.2,6.3a19.1,19.1,0,0,0,7.1,3.7S658.1,253,649.5,253.4Z" transform="translate(-2 -2.9)" style="fill:#4b4645"/><path d="M402.3,207.6s5.5,5.8,10.6,7.7a32.2,32.2,0,0,0,13.6,1.8S416,202,402.3,207.6Z" transform="translate(-2 -2.9)" style="fill:#4b4645"/><path d="M413.5,197.8s7.1,3.6,12.6,3.6a32.2,32.2,0,0,0,13.4-2.9S424.5,187.9,413.5,197.8Z" transform="translate(-2 -2.9)" style="fill:#4b4645"/><path d="M370.1,178.1s5.5,5.8,10.6,7.7a34.2,34.2,0,0,0,13.6,1.8S383.8,172.5,370.1,178.1Z" transform="translate(-2 -2.9)" style="fill:#4b4645"/><path d="M382.3,159.5s7.1,3.6,12.5,3.6a33.9,33.9,0,0,0,13.5-2.8S393.3,149.6,382.3,159.5Z" transform="translate(-2 -2.9)" style="fill:#4b4645"/><path d="M412.3,148.6s5.1,2.6,9,2.6a22.4,22.4,0,0,0,9.6-2.1S420.2,141.5,412.3,148.6Z" transform="translate(-2 -2.9)" style="fill:#4b4645"/><path d="M448,139.5s5.5-1.4,8.5-4a23.3,23.3,0,0,0,6-7.9S449.3,129,448,139.5Z" transform="translate(-2 -2.9)" style="fill:#4b4645"/><path d="M474.2,105.7s2.3-5.2,2.2-9.1a23.8,23.8,0,0,0-2.5-9.5S466.7,98.2,474.2,105.7Z" transform="translate(-2 -2.9)" style="fill:#4b4645"/><path d="M446.8,84s5.7-.1,9.2-1.9a22.8,22.8,0,0,0,7.6-6.3S450.5,74,446.8,84Z" transform="translate(-2 -2.9)" style="fill:#4b4645"/><path d="M465.2,181.5s5.7,1.2,9.5.2a25,25,0,0,0,8.9-4.6S471,172.5,465.2,181.5Z" transform="translate(-2 -2.9)" style="fill:#4b4645"/><path d="M456.5,174s3.4-4.9,3.9-9a24.9,24.9,0,0,0-.8-10.3S450.2,164.8,456.5,174Z" transform="translate(-2 -2.9)" style="fill:#4b4645"/><path d="M472,165.9s.4-4.6-.8-7.5a18.7,18.7,0,0,0-4.5-6.4S464.4,162.3,472,165.9Z" transform="translate(-2 -2.9)" style="fill:#4b4645"/><path d="M474.6,167.6s4.4,2.5,7.9,2.6a19.7,19.7,0,0,0,8.6-1.5S481.8,161.6,474.6,167.6Z" transform="translate(-2 -2.9)" style="fill:#4b4645"/><path d="M632.4,276.8s3.2,3.9,6.3,5.4a21.6,21.6,0,0,0,8.6,1.9S641.4,273.9,632.4,276.8Z" transform="translate(-2 -2.9)" style="fill:#4b4645"/><path d="M292,15.5s-9.6,8.5-12.9,16.6a53.7,53.7,0,0,0-3.7,21.8S300.3,37.8,292,15.5Z" transform="translate(-2 -2.9)" style="fill:#4b4645"/><path d="M312,26s-.2,8,2.1,12.9a34.6,34.6,0,0,0,8.4,10.9S325.7,31.7,312,26Z" transform="translate(-2 -2.9)" style="fill:#4b4645"/><path d="M318.1,65.1s-7.9-.1-12.8,2.3a33,33,0,0,0-10.8,8.5S312.6,78.8,318.1,65.1Z" transform="translate(-2 -2.9)" style="fill:#4b4645"/><path d="M364.8,39.8s-8.5,7.1-11.5,14a47.1,47.1,0,0,0-3.7,18.7S371.4,59.2,364.8,39.8Z" transform="translate(-2 -2.9)" style="fill:#4b4645"/><path d="M336.2,28.6s-5.5,4.6-7.4,9a29.6,29.6,0,0,0-2.4,12.1S340.4,41.1,336.2,28.6Z" transform="translate(-2 -2.9)" style="fill:#4b4645"/><path d="M319.9,52s-4.6-5.4-9-7.4a30.5,30.5,0,0,0-12.1-2.3S307.4,56.3,319.9,52Z" transform="translate(-2 -2.9)" style="fill:#4b4645"/><path d="M272.4,52.3s-1.3-7-4.1-10.9a30.4,30.4,0,0,0-9.3-8S259.4,49.8,272.4,52.3Z" transform="translate(-2 -2.9)" style="fill:#4b4645"/><path d="M446.5,61.4s-9.6-5.3-17.1-5.7a46.7,46.7,0,0,0-18.8,3.4S430.9,74.5,446.5,61.4Z" transform="translate(-2 -2.9)" style="fill:#4b4645"/><path d="M503.6,79s-8.4,3.4-12.5,8.1a38.3,38.3,0,0,0-7.4,13.8S504,95.8,503.6,79Z" transform="translate(-2 -2.9)" style="fill:#4b4645"/><path d="M548.5,80.1s-10.1,4.2-15.1,9.9a45.7,45.7,0,0,0-9,16.8S549.1,100.5,548.5,80.1Z" transform="translate(-2 -2.9)" style="fill:#4b4645"/><path d="M563.7,154s-8.1-3.7-14.2-3.5a37.2,37.2,0,0,0-14.8,3.9S551.9,165.5,563.7,154Z" transform="translate(-2 -2.9)" style="fill:#4b4645"/><path d="M558.2,135.4s-6.2,1.2-9.6,3.9a26.8,26.8,0,0,0-7,8.3S556.1,146.9,558.2,135.4Z" transform="translate(-2 -2.9)" style="fill:#4b4645"/><path d="M572.2,158s-6.2,1.2-9.6,3.8a26.8,26.8,0,0,0-7,8.3S570.1,169.5,572.2,158Z" transform="translate(-2 -2.9)" style="fill:#4b4645"/><path d="M651.8,207.6s-8.9,6.4-12.5,13.1a47,47,0,0,0-4.9,18.4S657,227.4,651.8,207.6Z" transform="translate(-2 -2.9)" style="fill:#4b4645"/><path d="M585.6,156.2s-6.8,4.9-9.5,10a36,36,0,0,0-3.8,14S589.6,171.3,585.6,156.2Z" transform="translate(-2 -2.9)" style="fill:#4b4645"/><path d="M483.2,153.8s-3.8,1.9-5.6,4.2a17.1,17.1,0,0,0-3.2,6.6S483.8,161.7,483.2,153.8Z" transform="translate(-2 -2.9)" style="fill:#4b4645"/><path d="M526.1,135.8s4.2-1.7,6.3-4.1a18.6,18.6,0,0,0,3.8-6.8S526,127.3,526.1,135.8Z" transform="translate(-2 -2.9)" style="fill:#4b4645"/><path d="M525.4,139.2s2.9,4.1,5.9,5.8a21.2,21.2,0,0,0,8.4,2.5S534.6,137,525.4,139.2Z" transform="translate(-2 -2.9)" style="fill:#4b4645"/><path d="M544.5,133.8s-4.1-.8-6.9,0a18,18,0,0,0-6.5,3.6S540.5,140.5,544.5,133.8Z" transform="translate(-2 -2.9)" style="fill:#4b4645"/><path d="M644.3,249.7s-6.1,4.4-8.5,8.9a32.7,32.7,0,0,0-3.4,12.5S647.8,263.2,644.3,249.7Z" transform="translate(-2 -2.9)" style="fill:#4b4645"/><path d="M464.6,90.7s-6.5,7.7-8.1,14.3a38.8,38.8,0,0,0,0,16.9S474.1,106.2,464.6,90.7Z" transform="translate(-2 -2.9)" style="fill:#4b4645"/><path d="M460.3,31.6s-6.2,7.9-7.7,14.6a42.6,42.6,0,0,0,.2,17.3S469.8,47.6,460.3,31.6Z" transform="translate(-2 -2.9)" style="fill:#4b4645"/><path d="M472.4,59.9s10.2,4.1,17.7,3.5a47.4,47.4,0,0,0,18.2-5.7S486.3,44.9,472.4,59.9Z" transform="translate(-2 -2.9)" style="fill:#4b4645"/><path d="M109.3,179.3c-2.8,0-5.1,3.2-5.1,7.2s2.3,7.3,5.1,7.3,5.2-3.3,5.2-7.3S112.2,179.3,109.3,179.3Zm2.7,6c-.8.3-1.7-.3-2.1-1.3s-.2-2,.5-2.3a1.7,1.7,0,0,1,2.1,1.2C112.9,183.9,112.7,185,112,185.3Z" transform="translate(-2 -2.9)" style="fill:#4b4645"/><path d="M121,188.2c-3.3,0-6,3.7-6,8.4s2.7,8.4,6,8.4,6-3.8,6-8.4S124.3,188.2,121,188.2Zm3.1,6.9c-.9.4-1.9-.3-2.4-1.5s-.2-2.4.6-2.7a2.1,2.1,0,0,1,2.4,1.5C125.2,193.6,124.9,194.8,124.1,195.1Z" transform="translate(-2 -2.9)" style="fill:#4b4645"/><path d="M485.5,278.4c-3.3,0-6,3.8-6,8.4s2.7,8.4,6,8.4,5.9-3.7,5.9-8.4S488.8,278.4,485.5,278.4Zm3,7a2.1,2.1,0,0,1-2.4-1.5c-.4-1.2-.2-2.4.7-2.7s1.9.3,2.3,1.5S489.4,285.1,488.5,285.4Z" transform="translate(-2 -2.9)" style="fill:#4b4645"/><path d="M298.8,118.6c-3.3,0-6,3.7-6,8.4s2.7,8.4,6,8.4,6-3.8,6-8.4S302.1,118.6,298.8,118.6Zm3.1,6.9c-.8.4-1.9-.3-2.4-1.4a2.1,2.1,0,0,1,.6-2.8c.9-.3,1.9.4,2.4,1.5S302.7,125.2,301.9,125.5Z" transform="translate(-2 -2.9)" style="fill:#4b4645"/><path d="M245.9,54.1c-3.3,0-6,3.8-6,8.4s2.7,8.4,6,8.4,6-3.8,6-8.4S249.2,54.1,245.9,54.1Zm3.1,7c-.8.3-1.9-.4-2.4-1.5a2.1,2.1,0,0,1,.6-2.8c.9-.3,1.9.4,2.4,1.5A2.1,2.1,0,0,1,249,61.1Z" transform="translate(-2 -2.9)" style="fill:#4b4645"/><path d="M265.7,106.3c-3.3,0-6,3.8-6,8.4s2.7,8.4,6,8.4,6-3.8,6-8.4S269,106.3,265.7,106.3Zm3,7c-.8.3-1.8-.4-2.3-1.5a2.1,2.1,0,0,1,.6-2.8c.8-.3,1.9.4,2.4,1.5S269.6,112.9,268.7,113.3Z" transform="translate(-2 -2.9)" style="fill:#4b4645"/><path d="M123.1,144c-2.5,0-4.5,2.9-4.5,6.5s2,6.4,4.5,6.4,4.6-2.9,4.6-6.4S125.6,144,123.1,144Zm2.4,5.4a1.7,1.7,0,0,1-1.9-1.2,1.7,1.7,0,0,1,.5-2.1,1.9,1.9,0,0,1,1.4,3.3Z" transform="translate(-2 -2.9)" style="fill:#4b4645"/><path d="M165,84c-3.3,0-6,3.8-6,8.4s2.7,8.4,6,8.4,6-3.8,6-8.4S168.3,84,165,84Zm3,7c-.8.3-1.9-.4-2.3-1.5a2.1,2.1,0,0,1,.6-2.8c.8-.3,1.9.4,2.4,1.5S168.9,90.6,168,91Z" transform="translate(-2 -2.9)" style="fill:#4b4645"/><path d="M105.3,278.4c-3.3,0-6,3.8-6,8.4s2.7,8.4,6,8.4,6-3.7,6-8.4S108.6,278.4,105.3,278.4Zm3.1,7c-.9.3-1.9-.3-2.4-1.5s-.2-2.4.6-2.7,1.9.3,2.4,1.5S109.2,285.1,108.4,285.4Z" transform="translate(-2 -2.9)" style="fill:#4b4645"/><path d="M78.6,192.5c-2.8,0-5.1,3.3-5.1,7.3s2.3,7.2,5.1,7.2,5.2-3.2,5.2-7.2S81.5,192.5,78.6,192.5Zm2.7,6.1a2,2,0,0,1-2.1-1.3,1.9,1.9,0,0,1,.6-2.4c.7-.3,1.6.3,2,1.3S82,198.3,81.3,198.6Z" transform="translate(-2 -2.9)" style="fill:#4b4645"/><path d="M95,186.4c-3.3,0-6,3.8-6,8.4s2.7,8.4,6,8.4,6-3.7,6-8.4S98.3,186.4,95,186.4Zm3.1,7c-.9.3-1.9-.3-2.4-1.5s-.2-2.4.6-2.7,1.9.3,2.4,1.5S98.9,193.1,98.1,193.4Z" transform="translate(-2 -2.9)" style="fill:#4b4645"/><path d="M243.3,105c-2.8,0-5.1,3.3-5.1,7.3s2.3,7.2,5.1,7.2,5.2-3.2,5.2-7.2S246.2,105,243.3,105Zm2.7,6a1.8,1.8,0,0,1-2.1-1.2c-.4-1-.2-2.1.6-2.4s1.6.3,2,1.3S246.7,110.7,246,111Z" transform="translate(-2 -2.9)" style="fill:#4b4645"/><path d="M255.6,120.6c-3.3,0-6,3.8-6,8.5s2.7,8.4,6,8.4,6-3.8,6-8.4S258.9,120.6,255.6,120.6Zm3,7c-.8.4-1.8-.3-2.3-1.5s-.2-2.4.6-2.7,1.9.3,2.4,1.5S259.5,127.3,258.6,127.6Z" transform="translate(-2 -2.9)" style="fill:#4b4645"/><path d="M232.6,118.7c-1.9-4.3-5.9-6.7-8.9-5.3s-3.9,5.8-2.1,10.1,5.9,6.6,8.9,5.3S234.4,122.9,232.6,118.7Zm-3.3-.2c-.6.7-1.8.5-2.7-.4s-1.2-2.1-.6-2.7,1.9-.5,2.8.4S230,117.9,229.3,118.5Z" transform="translate(-2 -2.9)" style="fill:#4b4645"/><path d="M156.5,285.6c-2.8,0-5.1,3.3-5.1,7.3s2.3,7.2,5.1,7.2,5.2-3.2,5.2-7.2S159.4,285.6,156.5,285.6Zm2.7,6c-.8.3-1.7-.3-2.1-1.3s-.2-2,.5-2.3,1.7.3,2.1,1.3S159.9,291.3,159.2,291.6Z" transform="translate(-2 -2.9)" style="fill:#4b4645"/><path d="M171.1,279.5c-3.3,0-6,3.8-6,8.4s2.7,8.4,6,8.4,6-3.7,6-8.4S174.4,279.5,171.1,279.5Zm3.1,7c-.9.3-1.9-.4-2.4-1.5a2.1,2.1,0,0,1,.6-2.8c.8-.3,1.9.4,2.4,1.5A2.1,2.1,0,0,1,174.2,286.5Z" transform="translate(-2 -2.9)" style="fill:#4b4645"/><path d="M425.4,255.5c-3.3,0-6,3.8-6,8.4s2.7,8.5,6,8.5,5.9-3.8,5.9-8.5S428.7,255.5,425.4,255.5Zm3,7c-.8.4-1.9-.3-2.4-1.5s-.2-2.4.7-2.7,1.9.3,2.4,1.5S429.3,262.2,428.4,262.5Z" transform="translate(-2 -2.9)" style="fill:#4b4645"/><path d="M487.3,216.2c-2.1-3.4-5.7-5-8.2-3.6s-2.8,5.5-.7,9,5.7,5,8.2,3.6S489.4,219.7,487.3,216.2Zm-2.8.3a1.8,1.8,0,0,1-2.5-.1c-.8-.6-1.2-1.7-.7-2.3a1.8,1.8,0,0,1,2.4,0A1.9,1.9,0,0,1,484.5,216.5Z" transform="translate(-2 -2.9)" style="fill:#4b4645"/><path d="M140.8,281.4c-3.3,0-6,3.8-6,8.4s2.7,8.4,6,8.4,6-3.8,6-8.4S144.1,281.4,140.8,281.4Zm3.1,7c-.9.3-1.9-.4-2.4-1.5a2.1,2.1,0,0,1,.6-2.8c.8-.3,1.9.4,2.4,1.5A2.1,2.1,0,0,1,143.9,288.4Z" transform="translate(-2 -2.9)" style="fill:#4b4645"/><path d="M194.5,215.5c-3.3,0-6,3.8-6,8.4s2.7,8.4,6,8.4,6-3.7,6-8.4S197.8,215.5,194.5,215.5Zm3.1,7c-.9.3-1.9-.3-2.4-1.5s-.2-2.4.6-2.7,1.9.3,2.4,1.4A2.1,2.1,0,0,1,197.6,222.5Z" transform="translate(-2 -2.9)" style="fill:#4b4645"/><path d="M446.6,185.9c-3.3,0-6,3.8-6,8.4s2.7,8.4,6,8.4,6-3.7,6-8.4S449.9,185.9,446.6,185.9Zm3,7a2,2,0,0,1-2.3-1.5c-.5-1.2-.2-2.4.6-2.7s1.9.3,2.4,1.5S450.5,192.6,449.6,192.9Z" transform="translate(-2 -2.9)" style="fill:#4b4645"/><path d="M463.6,186.7c-1.5-2.9-4.3-4.5-6.5-3.5s-2.6,4.3-1.2,7.3,4.4,4.5,6.5,3.5S465,189.7,463.6,186.7Zm-2.3,0c-.4.5-1.3.4-2-.2s-.9-1.5-.5-1.9a1.4,1.4,0,0,1,2,.2C461.5,185.4,461.7,186.2,461.3,186.7Z" transform="translate(-2 -2.9)" style="fill:#4b4645"/><path d="M453.4,90c-2.1-3.2-5.6-4.6-7.9-3.1s-2.5,5.3-.4,8.5,5.7,4.6,8,3.1S455.5,93.2,453.4,90Zm-2.7.3c-.4.6-1.4.6-2.3,0s-1.2-1.5-.8-2.1a1.7,1.7,0,0,1,2.3-.1C450.8,88.7,451.2,89.7,450.7,90.3Z" transform="translate(-2 -2.9)" style="fill:#4b4645"/><path d="M474.9,78c-2.1-3.2-5.6-4.6-7.9-3.1s-2.4,5.3-.3,8.5,5.6,4.6,7.9,3.1S477,81.2,474.9,78Zm-2.6.3a1.7,1.7,0,0,1-2.4.1c-.8-.6-1.2-1.6-.8-2.2a1.8,1.8,0,0,1,2.4,0C472.3,76.8,472.7,77.7,472.3,78.3Z" transform="translate(-2 -2.9)" style="fill:#4b4645"/><path d="M528.5,144.9c-2.1-3.3-5.6-4.7-7.9-3.2s-2.4,5.3-.3,8.6,5.6,4.6,7.9,3.1S530.6,148.1,528.5,144.9Zm-2.6.3a1.7,1.7,0,0,1-2.3,0c-.9-.6-1.3-1.5-.9-2.2a1.8,1.8,0,0,1,2.4,0C525.9,143.6,526.3,144.6,525.9,145.2Z" transform="translate(-2 -2.9)" style="fill:#4b4645"/><path d="M567.8,200.5c-2.1-3.2-5.6-4.6-7.9-3.1s-2.5,5.3-.4,8.5,5.7,4.6,8,3.1S569.9,203.7,567.8,200.5Zm-2.6.3a1.8,1.8,0,0,1-2.4,0c-.8-.6-1.2-1.5-.8-2.1a1.7,1.7,0,0,1,2.4-.1C565.2,199.2,565.6,200.2,565.2,200.8Z" transform="translate(-2 -2.9)" style="fill:#4b4645"/><path d="M558,241.1c-2.1-3.2-5.7-4.6-8-3.1s-2.4,5.3-.3,8.5,5.6,4.6,7.9,3.1S560.1,244.3,558,241.1Zm-2.7.4c-.4.6-1.4.6-2.3,0a1.7,1.7,0,0,1-.8-2.2c.4-.6,1.4-.6,2.3,0A1.7,1.7,0,0,1,555.3,241.5Z" transform="translate(-2 -2.9)" style="fill:#4b4645"/><path d="M595.5,297.2c-2-3.3-5.6-4.7-7.9-3.2s-2.4,5.3-.3,8.6,5.6,4.6,7.9,3.1S597.6,300.4,595.5,297.2Zm-2.6.3c-.4.6-1.5.6-2.3,0s-1.3-1.5-.8-2.2,1.4-.6,2.3,0S593.3,296.9,592.9,297.5Z" transform="translate(-2 -2.9)" style="fill:#4b4645"/><path d="M634.5,285.4c-3.5-1.6-7.2-.9-8.4,1.6s.8,5.8,4.2,7.4,7.3.9,8.4-1.6S638,287,634.5,285.4Zm-4,3c-1.1-.1-1.9-.7-1.9-1.4s.9-1.3,2-1.3a1.7,1.7,0,0,1,1.8,1.4C632.4,287.9,631.5,288.4,630.5,288.4Z" transform="translate(-2 -2.9)" style="fill:#4b4645"/><path d="M599.7,266.1c-2-1.9-5.7-1.2-8.4,1.6s-3.2,6.5-1.2,8.4,5.7,1.2,8.3-1.5S601.7,268,599.7,266.1Zm-6.9,6.4c-.4.9-1.2,1.5-1.9,1.2s-1-1.2-.6-2.2,1.3-1.5,1.9-1.3A1.7,1.7,0,0,1,592.8,272.5Z" transform="translate(-2 -2.9)" style="fill:#4b4645"/><path d="M605.7,222.7c-2-1.9-5.7-1.2-8.4,1.6s-3.2,6.5-1.2,8.4,5.7,1.2,8.3-1.5S607.7,224.6,605.7,222.7Zm-6.9,6.4c-.4.9-1.3,1.5-1.9,1.2s-1-1.2-.6-2.2,1.2-1.5,1.9-1.3A1.7,1.7,0,0,1,598.8,229.1Z" transform="translate(-2 -2.9)" style="fill:#4b4645"/><path d="M598.8,203.8c-1.9-1.9-5.7-1.2-8.3,1.6s-3.3,6.5-1.3,8.4,5.7,1.2,8.4-1.5S600.8,205.7,598.8,203.8Zm-6.9,6.4c-.3.9-1.2,1.5-1.9,1.2s-.9-1.2-.6-2.2a1.8,1.8,0,0,1,2-1.3C592.1,208.2,592.3,209.2,591.9,210.2Z" transform="translate(-2 -2.9)" style="fill:#4b4645"/><path d="M511.7,209.3c-3.3-1.9-7.1-1.5-8.5.9s.3,5.8,3.6,7.7,7.2,1.5,8.5-.8S515.1,211.2,511.7,209.3Zm-4.2,2.6c-1.1-.1-1.8-.8-1.7-1.5s1-1.2,2-1.1,1.8.8,1.7,1.5A1.6,1.6,0,0,1,507.5,211.9Z" transform="translate(-2 -2.9)" style="fill:#4b4645"/><path d="M529.7,156.6c-3.8-.2-7,1.9-7.1,4.6s2.8,5.1,6.6,5.3,7.1-1.9,7.2-4.6S533.6,156.8,529.7,156.6Zm-2.6,4.3c-1,.3-2,0-2.2-.7s.3-1.5,1.3-1.9,2,0,2.2.7S528.1,160.5,527.1,160.9Z" transform="translate(-2 -2.9)" style="fill:#4b4645"/><path d="M568.6,134.8c-2.6-.7-5.5,1.8-6.5,5.5s.5,7.3,3.1,7.9,5.6-1.8,6.5-5.5S571.3,135.5,568.6,134.8Zm1.1,6.2c-.8.1-1.5-.7-1.6-1.7s.3-2,1-2.1,1.5.7,1.6,1.7S570.4,140.9,569.7,141Z" transform="translate(-2 -2.9)" style="fill:#4b4645"/><path d="M496.7,149.4c-2.6-.6-5.5,1.8-6.5,5.6s.4,7.2,3.1,7.9,5.5-1.8,6.5-5.5S499.4,150.1,496.7,149.4Zm1.1,6.3c-.8.1-1.5-.7-1.6-1.7s.3-2,1-2.1,1.5.7,1.6,1.7A1.8,1.8,0,0,1,497.8,155.7Z" transform="translate(-2 -2.9)" style="fill:#4b4645"/><path d="M444.4,161c-2.6-.7-5.5,1.8-6.5,5.5s.4,7.3,3.1,7.9,5.6-1.7,6.5-5.5S447.1,161.7,444.4,161Zm1.1,6.2c-.8.1-1.5-.7-1.6-1.7a1.6,1.6,0,0,1,1-2c.8-.1,1.5.6,1.6,1.6S446.2,167.1,445.5,167.2Z" transform="translate(-2 -2.9)" style="fill:#4b4645"/><path d="M136.4,130c-3.3,0-6,3.8-6,8.4s2.7,8.4,6,8.4,6-3.8,6-8.4S139.7,130,136.4,130Zm3.1,7c-.9.3-1.9-.4-2.4-1.5a2.1,2.1,0,0,1,.6-2.8c.8-.3,1.9.4,2.4,1.5A2.1,2.1,0,0,1,139.5,137Z" transform="translate(-2 -2.9)" style="fill:#4b4645"/><path d="M85,145.7c-2.2-2-6.2-1.2-9.1,1.8s-3.4,7.2-1.3,9.2,6.3,1.2,9.1-1.8S87.1,147.7,85,145.7Zm-.2,5c-.4,1.1-1.3,1.7-2.1,1.4s-1-1.3-.6-2.4,1.3-1.7,2.1-1.4A1.9,1.9,0,0,1,84.8,150.7Z" transform="translate(-2 -2.9)" style="fill:#4b4645"/></g></svg>