<?xml version="1.0" standalone="no"?>
<!DOCTYPE svg PUBLIC "-//W3C//DTD SVG 20010904//EN"
 "http://www.w3.org/TR/2001/REC-SVG-20010904/DTD/svg10.dtd">
<svg version="1.0" xmlns="http://www.w3.org/2000/svg"
 width="552.000000pt" height="552.000000pt" viewBox="0 0 552.000000 552.000000"
 preserveAspectRatio="xMidYMid meet">
<metadata>
Created by potrace 1.14, written by Peter Selinger 2001-2017
</metadata>
<g transform="translate(0.000000,552.000000) scale(0.100000,-0.100000)"
fill="#000000" stroke="none">
<path d="M2275 4843 c-39 -9 -107 -44 -132 -69 -32 -32 -70 -117 -78 -176 -6
-38 -3 -56 14 -88 22 -43 28 -100 10 -100 -5 0 -8 -4 -5 -9 3 -5 -11 -23 -32
-40 -20 -18 -48 -42 -62 -55 -14 -13 -36 -27 -50 -31 -14 -4 -34 -14 -45 -21
-11 -8 -27 -14 -36 -14 -10 0 -19 -3 -21 -7 -1 -5 -23 -19 -48 -32 -25 -13
-67 -38 -95 -56 -27 -18 -87 -52 -133 -76 -252 -133 -242 -129 -242 -109 0 16
81 100 96 100 7 0 19 6 26 13 7 7 33 27 58 44 25 17 61 48 80 70 39 43 100
127 100 138 0 4 9 19 20 34 31 45 70 174 74 251 3 39 10 78 16 85 7 8 9 19 6
24 -7 11 -36 4 -36 -10 0 -4 -12 -21 -26 -36 -15 -15 -35 -47 -46 -70 -10 -23
-22 -43 -26 -45 -5 -2 -46 -74 -91 -161 -71 -138 -116 -215 -164 -279 -6 -9
-19 -27 -27 -39 -8 -12 -23 -29 -32 -38 -10 -8 -18 -19 -18 -24 0 -10 -12 -25
-67 -84 -24 -25 -43 -49 -43 -52 0 -3 -30 -26 -67 -51 -38 -25 -70 -48 -73
-51 -3 -3 -36 -27 -75 -55 -74 -52 -108 -78 -134 -106 -16 -16 -63 -38 -82
-38 -14 0 -2 55 22 103 10 21 19 45 19 55 0 17 86 79 96 70 3 -3 19 8 35 23
17 16 35 29 40 29 13 0 142 97 183 136 6 6 20 23 31 38 11 16 25 34 30 40 35
42 113 238 110 276 -1 8 -3 22 -3 31 -1 11 -10 16 -27 15 -14 0 -25 -4 -25 -7
0 -4 -16 -10 -35 -13 -47 -9 -121 -43 -168 -77 -22 -16 -44 -26 -48 -23 -5 3
-8 0 -7 -7 2 -7 -7 -18 -20 -24 -30 -16 -53 -41 -87 -96 -16 -24 -32 -47 -37
-50 -5 -3 -9 -8 -8 -10 2 -6 -10 -41 -31 -87 -10 -23 -28 -93 -40 -155 -43
-232 -82 -325 -176 -424 -40 -41 -73 -79 -73 -84 0 -4 -6 -12 -13 -16 -15 -10
-67 -89 -67 -103 0 -5 7 -10 15 -10 8 0 15 5 15 10 0 18 77 116 147 187 100
101 90 96 170 78 100 -25 172 -21 272 11 47 16 88 32 89 36 2 5 10 8 17 8 19
0 175 83 232 124 28 20 56 36 62 36 7 0 22 11 34 24 42 45 122 106 139 106 10
0 19 -11 23 -32 23 -104 146 -197 254 -194 44 1 56 6 87 37 30 30 37 45 39 85
3 47 -11 79 -52 122 -7 7 -13 24 -13 37 l0 24 53 -16 c28 -8 61 -20 72 -26 12
-7 87 -12 195 -13 160 -2 241 3 372 21 131 18 393 8 408 -15 8 -13 71 -9 67 4
-5 16 -466 246 -502 250 -132 16 -174 19 -275 21 -88 1 -123 5 -149 19 -58 31
-143 48 -236 49 -87 1 -92 0 -137 -32 -26 -19 -45 -38 -42 -42 7 -12 -37 -28
-93 -35 -44 -5 -44 -4 -41 22 2 20 10 28 27 31 13 2 29 10 35 17 20 25 174 85
381 149 39 12 72 25 75 29 6 7 53 20 84 22 11 1 50 -4 86 -11 36 -7 75 -15 87
-17 12 -2 63 -31 113 -65 50 -34 137 -82 193 -105 140 -59 223 -72 492 -81
155 -4 229 -12 255 -25 14 -7 112 -23 152 -24 10 -1 18 3 19 9 2 10 -5 14 -71
43 -25 11 -74 33 -110 50 -36 16 -96 42 -135 57 -38 15 -110 42 -158 62 -49
19 -96 36 -105 38 -42 8 -174 45 -183 51 -6 3 -124 7 -262 8 -182 1 -258 5
-274 14 -31 17 -29 30 5 38 15 3 45 14 66 25 22 10 43 16 48 13 4 -3 8 -1 8 5
0 10 95 41 127 41 10 0 36 9 58 20 22 11 49 20 61 20 26 0 136 -48 146 -63 4
-7 8 -9 8 -5 0 3 21 -5 48 -19 216 -116 374 -187 452 -203 25 -5 59 -14 75
-21 17 -7 38 -11 48 -10 9 1 17 -3 17 -10 0 -8 3 -9 14 0 10 8 42 5 132 -15
115 -26 198 -39 239 -39 11 0 23 -4 27 -10 5 -6 11 -6 19 2 8 8 6 14 -8 21
-10 6 -39 29 -63 52 -25 23 -69 59 -97 81 -29 22 -53 43 -53 48 0 5 -9 11 -20
14 -11 3 -20 12 -20 21 0 9 -8 16 -19 16 -10 0 -22 7 -25 16 -3 8 -10 13 -15
10 -4 -3 -16 3 -26 14 -10 11 -23 20 -30 20 -15 0 -45 32 -45 48 0 8 10 10 28
7 31 -7 55 -13 62 -15 3 -1 10 -3 15 -4 54 -11 121 -59 216 -157 58 -60 108
-106 112 -103 8 8 19 -34 12 -46 -3 -5 2 -10 12 -10 10 0 37 -17 60 -38 103
-92 133 -115 174 -134 24 -10 46 -22 49 -27 3 -4 20 -13 38 -20 17 -8 32 -16
32 -20 0 -4 9 -7 20 -8 10 -1 34 -8 52 -17 39 -17 170 -56 290 -86 89 -21 119
-20 96 4 -7 7 -24 28 -38 46 -14 18 -33 42 -42 53 -10 11 -18 24 -18 28 0 4
-7 15 -16 23 -8 9 -30 41 -49 71 -41 69 -38 99 11 93 19 -2 35 0 37 5 1 5 36
12 77 15 80 5 134 22 95 30 -24 5 -55 25 -120 75 -90 70 -252 159 -340 187
-22 7 -44 16 -50 20 -5 4 -37 14 -70 23 -66 18 -229 14 -253 -6 -7 -6 -61 -12
-120 -15 -113 -4 -220 12 -287 44 -23 10 -46 14 -67 10 -17 -3 -70 1 -117 9
-47 8 -104 17 -126 20 -77 11 -95 17 -95 31 0 8 11 14 28 15 15 0 74 3 132 5
96 4 109 3 161 -21 92 -41 157 -50 257 -36 48 7 102 17 119 22 49 15 80 68 74
125 -2 22 -57 67 -110 91 -69 32 -191 34 -263 6 -54 -21 -108 -66 -108 -89 0
-9 -7 -31 -15 -48 l-16 -33 -122 -2 c-274 -5 -460 -22 -532 -46 -22 -8 -56
-16 -75 -18 -19 -3 -63 -14 -97 -26 -34 -11 -74 -21 -88 -21 -14 0 -25 -4 -25
-10 0 -5 -17 -12 -37 -16 -21 -4 -50 -13 -65 -20 -15 -8 -92 -32 -170 -53 -79
-22 -157 -44 -175 -49 -26 -8 -33 -7 -38 6 -11 30 39 59 111 65 98 7 178 57
235 146 25 39 29 55 29 119 0 71 -1 74 -35 106 -42 40 -104 54 -170 39z m-344
-886 c24 -18 52 -36 62 -40 9 -3 17 -11 17 -17 0 -15 -41 -12 -90 5 -23 8 -62
15 -86 15 -53 0 -57 16 -11 47 44 30 57 28 108 -10z"/>
<path d="M2491 3340 c-35 -5 -70 -11 -78 -14 -11 -4 -13 -129 -13 -691 l0
-685 80 0 c69 0 80 2 81 18 1 9 2 132 3 272 l1 255 77 -4 c284 -11 468 163
468 444 0 128 -50 257 -124 322 -71 63 -148 85 -301 89 -71 1 -159 -1 -194 -6z
m298 -162 c105 -27 170 -142 157 -277 -17 -169 -112 -251 -289 -251 -40 0 -77
4 -84 8 -8 5 -11 81 -11 264 -1 257 -1 258 21 263 63 14 136 11 206 -7z"/>
<path d="M5162 2077 c-42 -67 -144 -182 -217 -245 -20 -17 -35 -17 -120 3 -78
18 -224 15 -260 -6 -5 -4 -28 -12 -50 -19 -56 -18 -211 -87 -230 -102 -5 -5
-38 -25 -72 -46 -34 -20 -74 -47 -88 -59 -14 -13 -30 -23 -35 -23 -6 0 -10 -4
-10 -10 0 -5 -5 -10 -11 -10 -6 0 -34 -20 -61 -45 -35 -31 -59 -45 -79 -45
-16 0 -29 5 -29 13 -1 18 -32 79 -55 108 -36 44 -97 84 -164 105 l-66 22 -46
-24 c-27 -13 -56 -38 -68 -57 -24 -39 -30 -102 -12 -135 38 -71 143 -131 246
-139 33 -3 61 -6 63 -8 8 -7 -12 -33 -37 -48 -42 -24 -60 -21 -110 18 -38 31
-121 65 -157 65 -6 0 -32 9 -57 20 -88 39 -357 43 -572 9 -33 -5 -139 -12
-235 -16 -148 -5 -181 -3 -214 11 -43 18 -151 22 -141 6 4 -6 52 -33 108 -61
56 -28 109 -54 117 -59 8 -5 83 -41 165 -79 168 -77 175 -79 420 -87 140 -5
175 -9 200 -24 68 -41 245 -64 359 -46 41 6 57 16 92 53 39 41 47 45 103 50
63 6 75 -2 46 -31 -8 -8 -25 -18 -38 -22 -12 -4 -36 -17 -52 -30 -17 -12 -53
-29 -80 -36 -28 -7 -56 -18 -63 -25 -7 -7 -25 -16 -40 -19 -15 -3 -57 -17 -94
-30 -38 -13 -68 -20 -68 -16 0 4 -4 2 -8 -4 -4 -5 -36 -20 -72 -33 -36 -12
-75 -27 -87 -33 -12 -6 -44 -8 -75 -5 -49 6 -73 9 -155 23 -18 3 -33 9 -33 13
0 5 -12 13 -28 19 -15 5 -39 21 -52 36 -14 15 -52 39 -85 55 -94 46 -175 80
-175 75 0 -2 -10 2 -22 10 -29 19 -121 45 -178 51 -25 3 -142 9 -260 15 -213
9 -325 21 -371 39 -13 4 -55 12 -94 15 -61 6 -68 5 -55 -7 8 -7 38 -23 66 -35
28 -12 98 -43 155 -70 159 -76 514 -201 539 -191 3 1 14 -2 25 -8 36 -19 155
-28 340 -25 132 2 197 -1 243 -12 74 -17 68 -16 87 -16 32 0 13 -20 -32 -34
-27 -8 -65 -21 -85 -30 -21 -9 -55 -16 -77 -16 -29 0 -47 -7 -65 -25 -14 -14
-34 -25 -44 -25 -11 0 -37 -7 -58 -16 -25 -11 -55 -14 -89 -11 -50 5 -138 39
-163 64 -7 7 -19 13 -25 13 -7 0 -25 7 -42 16 -259 140 -438 215 -550 229 -27
3 -72 10 -100 15 -27 5 -63 12 -80 15 -64 11 -85 16 -110 25 -14 5 -25 7 -25
4 0 -4 -7 -1 -15 6 -8 7 -34 12 -57 12 -23 -1 -50 4 -61 9 -21 12 -97 2 -97
-12 0 -5 4 -9 9 -9 5 0 21 -11 37 -25 80 -69 261 -219 276 -229 23 -14 23 -25
1 -42 -16 -12 -13 -13 24 -14 23 0 44 -5 46 -12 4 -10 6 -10 6 -1 1 17 91 -26
91 -43 0 -9 -17 -8 -68 3 -37 8 -79 16 -93 17 -15 1 -34 9 -43 18 -9 9 -25 20
-36 23 -11 3 -20 11 -20 16 0 5 -5 9 -11 9 -5 0 -83 74 -172 164 -180 183
-289 269 -423 335 -123 61 -141 68 -209 86 -33 9 -64 18 -70 19 -5 2 -13 4
-17 5 -4 1 -26 8 -47 16 -36 12 -94 25 -185 42 -27 4 -28 3 -17 -11 8 -9 11
-16 8 -16 -3 0 3 -10 13 -22 55 -65 92 -113 102 -132 6 -12 14 -23 18 -26 7
-5 57 -81 76 -116 6 -12 9 -26 5 -31 -10 -16 -129 -24 -135 -10 -3 9 -7 9 -14
-1 -5 -7 -35 -15 -68 -18 -80 -8 -94 -17 -52 -35 35 -14 35 -14 87 -59 19 -17
40 -30 47 -30 7 0 14 -4 16 -8 4 -12 132 -92 146 -92 6 0 12 -3 14 -7 5 -12
105 -59 193 -91 169 -61 250 -69 375 -37 32 8 36 9 89 24 50 14 115 11 228
-13 15 -3 46 -8 68 -11 22 -3 51 -10 65 -15 14 -4 68 -13 120 -20 52 -6 122
-16 155 -21 148 -23 150 -24 150 -44 0 -21 10 -20 -190 -25 -84 -3 -94 -1
-160 31 -64 31 -78 34 -160 34 -223 0 -301 -37 -310 -147 -2 -27 59 -85 120
-112 46 -22 70 -26 145 -26 86 0 170 16 170 32 0 5 6 8 14 8 28 0 65 42 82 93
10 28 17 55 16 59 -1 5 10 8 26 8 117 2 477 19 527 25 89 12 316 59 345 72 8
3 20 7 25 9 6 1 39 12 75 23 36 11 74 21 84 21 17 0 77 23 127 50 8 4 42 13
75 20 65 13 146 34 212 56 57 19 62 18 62 -10 0 -34 -35 -52 -117 -59 -72 -7
-126 -29 -169 -68 -11 -10 -26 -19 -32 -19 -7 0 -12 -7 -12 -15 0 -9 -6 -18
-14 -21 -25 -10 -59 -105 -58 -163 2 -109 46 -150 169 -159 59 -4 78 -1 100
14 16 10 44 26 63 36 63 32 121 142 122 233 0 70 -13 109 -42 125 -26 14 -26
50 0 57 11 3 20 9 20 13 0 15 106 119 129 125 54 16 236 112 366 193 44 27
100 50 109 45 5 -3 6 -1 2 5 -4 7 27 27 81 54 49 23 90 46 93 49 3 3 16 10 28
14 21 6 23 5 17 -16 -9 -29 -64 -89 -82 -89 -7 0 -13 -4 -13 -10 0 -5 -5 -10
-10 -10 -20 0 -95 -56 -157 -116 -35 -34 -63 -64 -63 -67 0 -4 -13 -26 -30
-50 -16 -25 -30 -50 -30 -55 0 -6 -6 -17 -14 -25 -39 -38 -74 -153 -86 -277
-5 -47 -11 -93 -15 -102 -18 -46 48 6 75 59 8 15 35 57 58 93 24 36 52 83 63
105 11 22 23 47 28 55 4 8 22 44 40 80 36 74 36 74 113 192 31 48 74 109 95
135 21 26 43 54 48 62 6 7 30 34 55 60 24 25 43 47 42 49 -4 5 185 142 195
142 5 0 15 9 23 20 8 11 20 20 26 20 7 0 14 4 16 8 6 15 75 62 91 62 10 0 14
5 11 15 -4 8 -2 15 3 15 5 0 18 8 29 18 29 27 94 65 101 59 3 -4 -6 -35 -20
-70 -14 -35 -28 -79 -32 -99 -8 -44 -18 -52 -115 -108 -125 -72 -222 -141
-282 -203 -32 -32 -58 -62 -58 -67 0 -5 -6 -15 -14 -23 -16 -15 -69 -119 -81
-156 -4 -13 -14 -40 -23 -60 -15 -37 -19 -87 -9 -115 6 -16 19 -14 62 5 11 5
39 13 62 18 52 11 184 85 230 129 18 17 37 32 41 32 8 0 79 105 105 156 40 77
77 208 101 356 8 43 27 112 36 123 4 6 13 28 20 50 7 22 16 42 19 45 3 3 11
19 16 35 6 17 20 34 33 40 12 5 22 15 22 21 0 5 25 37 56 70 30 32 72 84 92
114 20 30 40 57 45 58 14 7 7 22 -10 22 -11 0 -32 -22 -51 -53z"/>
</g>
</svg>
