<svg id="a19e18e6-1563-4a7e-9e1a-085e5790f571" data-name="Layer 2" xmlns="http://www.w3.org/2000/svg" viewBox="0 0 1001.9 229.6"><path d="M887.7,88.4c-39.7-3-68.9,20.7-99.1,43.7-37.1,28.3-79.2,45.8-125.9,30.8-41.6-13.4-73.3-47.1-112-67.2A187.5,187.5,0,0,0,422.9,79.4c-24,5.5-46.7,15.7-69.7,24.5C241.9,146.2,118.2,168,1.9,142.2v160h999V119.5C948.9,112.2,927,91.4,887.7,88.4Z" transform="translate(0.9 -72.6)" style="fill:#dbeff8"/><path d="M1000.9,191.6c-51.4.7-109.5-3.3-159.4-12-23.5-4.1-47.1-9.3-68.7-19.3-28-13-52.5-33.8-82.1-42.2a106.9,106.9,0,0,0-75.4,6.8c-22,10.8-39.7,28.9-61.3,40.4-32.9,17.6-71.8,18.5-109,19-51.2.7-105.6.7-149.3-26.1S222.8,81.6,173.1,73.7c-31.6-5.1-62.8,9-91.8,22.7L1.9,134V302.2h999Z" transform="translate(0.9 -72.6)" style="fill:#a3d9ea"/><path d="M997.2,174.9c-23.2-11.9-47.6-24.3-73.9-27.6s-52.1,9-75.9,21.9c-50,27.3-149.9,80-204.9,40.7-13.4-9.6-21.6-24.6-33.4-36.1C524,91,419.3,163.6,333.5,200c-33.5,14.2-71.3,24.4-107.9,18.7C158.9,208.5,98.9,153.2,1.9,155.9V302.2h999V177A34.7,34.7,0,0,0,997.2,174.9Z" transform="translate(0.9 -72.6)" style="fill:#6cc7e2"/><path d="M1000.9,274.2c-52.3,6.3-100.8-28.9-153.2-32.9-35-2.6-69.6,8.8-104.7,7.8-70.7-2-136-53.7-205.9-43.1-33.1,5-62.5,23.7-95,31.8-80,19.9-161.5-26.3-244-26.5-61.9-.2-135.7,23.6-196.2,8.9v82h999Z" transform="translate(0.9 -72.6)" style="fill:#00b4d5"/></svg>